<svg preserveAspectRatio="none" width="100%" height="100%" overflow="visible" style="display: block;" viewBox="0 0 12.4081 7.55657" fill="none" xmlns="http://www.w3.org/2000/svg">
<path id="Vector 3 (Stroke)" d="M5.1067 0.00106138C5.1067 0.00106138 5.10744 0.00141198 5.10946 0.00191048L7.22245 0.0042455C7.22545 0.00351402 7.22542 0.00360868 7.22542 0.00360868C7.22569 0.00476691 7.22624 0.00655903 7.22691 0.00934011C7.22866 0.0166437 7.23172 0.0294388 7.23625 0.0473374C7.24533 0.083235 7.26014 0.139683 7.28104 0.213549C7.32289 0.361501 7.38903 0.578429 7.48291 0.841247C7.67197 1.37053 7.96723 2.0679 8.39272 2.75873C9.25534 4.15926 10.5277 5.35337 12.4081 5.3833L12.3735 7.55657C9.42475 7.50964 7.58448 5.59138 6.5419 3.89865C6.4061 3.67816 6.28177 3.45837 6.16808 3.24293C6.05251 3.46395 5.92623 3.68954 5.7879 3.91542C4.75546 5.60112 2.92269 7.5273 0 7.47973L0.0352377 5.30646C1.83065 5.3357 3.07201 4.18773 3.9341 2.78017C4.35734 2.08912 4.65397 1.38657 4.84497 0.851224C4.9398 0.585425 5.0069 0.365533 5.0496 0.215247C5.07091 0.140259 5.0861 0.0829535 5.09545 0.046276C5.10013 0.027957 5.10339 0.0147829 5.10522 0.00721736L5.1067 0.00106138ZM7.22542 0.00297185V0.00360868L7.22521 0.0025473L7.22542 0.00297185ZM5.10692 0L5.1067 0.00106138V0.00042455L5.10692 0Z" fill="var(--fill-0, white)"/>
</svg>
