<svg preserveAspectRatio="none" width="100%" height="100%" overflow="visible" style="display: block;" viewBox="0 0 32.634 9.10394" fill="none" xmlns="http://www.w3.org/2000/svg">
<g id="Group">
<path id="Vector" d="M15.6707 4.55184C15.6707 5.90897 15.6707 7.26674 15.6707 8.62385C15.6707 8.69981 15.6719 8.77638 15.661 8.85108C15.6363 9.02363 15.5525 9.09772 15.379 9.09893C15.0072 9.10136 14.6353 9.10014 14.2629 9.10014C13.2709 9.10014 12.279 9.10196 11.2871 9.09954C10.0245 9.0959 8.88252 8.17128 8.62099 6.92593C8.42211 5.97765 8.63484 5.12227 9.2821 4.40057C9.61114 4.03364 10.0474 3.82466 10.5205 3.70134C11.0593 3.5604 11.6101 3.57802 12.1591 3.57984C12.4664 3.58106 12.7738 3.57984 13.0811 3.57984C13.4084 3.57984 13.6663 3.45409 13.8296 3.15824C13.9947 2.85875 13.9712 2.56168 13.8031 2.27616C13.6958 2.09391 13.5246 1.99003 13.3186 1.95662C13.1914 1.93596 13.0612 1.92806 12.9322 1.92746C12.0102 1.92502 11.0888 1.92685 10.1667 1.92624C9.82022 1.92624 9.71477 1.81871 9.71417 1.46758C9.71356 1.10916 9.71235 0.750736 9.71477 0.392314C9.7172 0.106184 9.81118 0.0150597 10.0957 0.0150597C11.8156 0.0150597 13.5349 0.0150597 15.2548 0.0150597C15.6007 0.0150597 15.6713 0.0837068 15.6713 0.430587C15.6719 1.80413 15.6713 3.17768 15.6713 4.55184H15.6707ZM12.2139 7.18957C12.5213 7.18957 12.828 7.19018 13.1354 7.18957C13.6072 7.18775 13.9381 6.85544 13.9429 6.3798C13.9483 5.88166 13.6241 5.53964 13.1377 5.53721C12.5291 5.53413 11.9198 5.53413 11.3112 5.53721C10.8513 5.53903 10.5542 5.79599 10.5091 6.25585C10.4597 6.76375 10.7338 7.19078 11.3082 7.19018C11.6101 7.19018 11.9114 7.19018 12.2133 7.19018L12.2139 7.18957Z" fill="var(--fill-0, #226CE0)"/>
<path id="Vector_2" d="M32.634 4.57006C32.634 5.94361 32.634 7.31777 32.634 8.69132C32.634 9.04669 32.581 9.10075 32.2363 9.10075C30.9207 9.10075 29.6052 9.09104 28.2902 9.10379C27.0675 9.11532 25.8206 8.20835 25.579 6.82509C25.4234 5.93633 25.6187 5.11559 26.2322 4.43155C26.6553 3.96013 27.2061 3.72685 27.8213 3.63816C28.5668 3.53063 29.3177 3.59564 30.0656 3.58166C30.6965 3.57012 31.0847 2.9851 30.8406 2.39705C30.7399 2.15466 30.5513 2.01129 30.2982 1.9554C30.1819 1.92928 30.0632 1.92624 29.9444 1.92624C29.017 1.92685 28.0902 1.92685 27.1627 1.92624C26.7891 1.92624 26.6981 1.83268 26.6975 1.45239C26.6975 1.09397 26.6962 0.735549 26.6975 0.377127C26.6987 0.0976789 26.7806 0.0150597 27.0518 0.0150597C28.7934 0.0150597 30.5344 0.0150597 32.2761 0.0150597C32.5665 0.0150597 32.634 0.0837068 32.634 0.383202C32.634 1.77862 32.634 3.17404 32.634 4.56945V4.57006ZM29.1996 5.53595C28.914 5.53595 28.6277 5.55178 28.3439 5.5317C27.8497 5.4965 27.4411 5.86948 27.4821 6.42658C27.514 6.86337 27.8141 7.18532 28.2468 7.18775C28.8766 7.19139 29.507 7.19139 30.1367 7.18775C30.6055 7.18532 30.9026 6.86398 30.9033 6.36883C30.9033 5.85855 30.6158 5.54328 30.1367 5.53595C29.8245 5.5317 29.5124 5.53535 29.1996 5.53535V5.53595Z" fill="var(--fill-0, #226CE0)"/>
<path id="Vector_3" d="M17.2527 4.55161C17.2527 3.19447 17.2527 1.83732 17.2527 0.480177C17.2527 0.40424 17.2527 0.327695 17.2642 0.252973C17.2883 0.0980625 17.3762 0.0142279 17.5395 0.0148354C18.7737 0.0166579 20.0104 -0.0276894 21.2422 0.0288078C22.7512 0.0980625 23.9764 1.06641 24.3228 2.60702C24.4054 2.97395 24.4428 3.3433 24.4422 3.71934C24.4391 5.36443 24.441 7.00895 24.4404 8.65402C24.4404 8.72452 24.4446 8.79679 24.4313 8.86481C24.4036 9.00818 24.3205 9.0987 24.1656 9.0987C23.6967 9.09931 23.2278 9.09931 22.759 9.0987C22.6198 9.0987 22.536 9.02158 22.5113 8.88852C22.4956 8.80407 22.4939 8.71597 22.4939 8.62974C22.4927 6.96338 22.4944 5.29641 22.4927 3.63004C22.4914 2.82754 22.0328 2.17509 21.2958 1.9898C20.6594 1.83003 19.9188 1.9655 19.4921 2.55477C19.2987 2.82207 19.2046 3.12339 19.204 3.45265C19.2028 5.1846 19.2034 6.91599 19.2028 8.64795C19.2028 8.71294 19.2059 8.77858 19.198 8.84296C19.1781 9.00514 19.0799 9.09749 18.9184 9.0987C18.455 9.10113 17.9915 9.09931 17.5275 9.09992C17.3804 9.09992 17.2943 9.02279 17.269 8.88245C17.2545 8.80346 17.2533 8.72083 17.2533 8.63945C17.2527 7.27683 17.2527 5.91421 17.2527 4.55161Z" fill="var(--fill-0, #226CE0)"/>
<path id="Vector_4" d="M4.06543 9.10058C3.32177 9.10058 2.57751 9.10058 1.83385 9.10058C1.56689 9.10058 1.50361 9.0538 1.4548 8.7847C1.35355 8.22456 1.26195 7.66326 1.16432 7.10256C1.0221 6.28546 0.877469 5.46897 0.73645 4.65191C0.618331 3.96848 0.504436 3.28443 0.386919 2.6004C0.265186 1.90117 0.141645 1.20194 0.0205144 0.502717C0.00785902 0.427993 2.47047e-05 0.351448 2.47047e-05 0.276119C0.00122998 0.1206 0.0813809 0.022186 0.233246 0.0203635C0.723793 0.0136811 1.21434 0.016111 1.70489 0.0191485C1.86821 0.0203635 1.92244 0.146722 1.95137 0.277334C2.00139 0.504538 2.04237 0.734172 2.08274 0.963801C2.18519 1.54578 2.28523 2.12777 2.38647 2.70974C2.54859 3.6386 2.70949 4.56747 2.87341 5.49633C2.92222 5.77397 2.97405 6.05096 3.0313 6.32678C3.13556 6.82977 3.54596 7.1724 4.05277 7.18636C4.5385 7.19976 4.98507 6.87291 5.11159 6.39177C5.23336 5.93009 5.28819 5.45501 5.37317 4.9854C5.52203 4.15862 5.66664 3.33121 5.81125 2.5038C5.92636 1.84163 6.03848 1.17946 6.15176 0.517297C6.15661 0.490565 6.15838 0.463228 6.16323 0.436498C6.22831 0.0562057 6.27652 0.0148961 6.65436 0.0148961C7.04788 0.0148961 7.44144 0.0136811 7.83495 0.0155036C8.08021 0.0167186 8.18086 0.116348 8.14408 0.355701C8.05248 0.949833 7.94884 1.54274 7.84758 2.13566C7.70777 2.95274 7.56614 3.76982 7.42456 4.5869C7.30522 5.27579 7.18349 5.96468 7.06415 6.65358C6.94545 7.33702 6.82793 8.02045 6.70979 8.70389C6.70317 8.74156 6.69716 8.77863 6.68933 8.8157C6.64173 9.03681 6.56938 9.09876 6.3464 9.09876C5.5865 9.09997 4.82656 9.09876 4.06603 9.09876L4.06543 9.10058Z" fill="var(--fill-0, #226CE0)"/>
</g>
</svg>
