<svg preserveAspectRatio="none" width="100%" height="100%" overflow="visible" style="display: block;" viewBox="0 0 19.8067 29.911" fill="none" xmlns="http://www.w3.org/2000/svg">
<path id="Vector 29" d="M1.51229 14.3116L9.88989 18.6559M1.51229 14.3116L9.88989 11.2931M1.51229 14.3116L2.55838 12.6794L3.60448 11.0472M9.88989 11.2931L18.3405 14.3116M9.88989 11.2931V18.6559M9.88989 18.6559L18.3405 14.3116M18.3405 14.3116L16.2257 11.0472M9.88989 28.7058V21.0172M9.88989 28.7058L14.1152 22.6661M9.88989 28.7058L7.91972 25.7435M19.4772 15.6993L9.88989 21.0172M9.88989 21.0172L6.40871 19.1141L2.00922 16.8567L5.94956 22.7812M14.1108 7.78284L9.88104 1.25406L7.78885 4.51845L5.69666 7.78284" stroke="var(--stroke-0, white)" stroke-width="1.35856"/>
</svg>
