<svg preserveAspectRatio="none" width="100%" height="100%" overflow="visible" style="display: block;" viewBox="0 0 24.8688 32" fill="none" xmlns="http://www.w3.org/2000/svg">
<g id="Vector 8">
<path fill-rule="evenodd" clip-rule="evenodd" d="M5.02581 8.86993C4.26481 8.82988 3.87429 8.11894 3.77416 7.61828C3.67403 7.11762 4.52515 6.2665 5.12594 6.2665C5.72674 6.2665 5.97707 6.81722 5.97707 7.36795C5.97707 7.91868 5.97707 8.92 5.02581 8.86993Z" fill="var(--fill-0, #075056)"/>
<path fill-rule="evenodd" clip-rule="evenodd" d="M9.53176 4.11366C8.53044 4.15371 7.82175 4.57871 7.92965 5.36531C8.01892 6.01617 8.52043 6.36663 9.28143 6.36663C10.2327 6.36663 10.7834 5.6657 10.7834 5.36531C10.7834 5.06491 10.7834 4.06359 9.53176 4.11366Z" fill="var(--fill-0, #075056)"/>
<path fill-rule="evenodd" clip-rule="evenodd" d="M17.0917 4.71445C17.1318 4.03355 16.1739 3.72982 15.6899 3.66306C14.8888 3.613 14.5884 4.31392 14.5884 4.81458C14.5884 5.31524 14.6886 6.01617 15.4896 6.01617C16.2907 6.01617 17.0417 5.56557 17.0917 4.71445Z" fill="var(--fill-0, #075056)"/>
<path fill-rule="evenodd" clip-rule="evenodd" d="M21.3474 7.11762C21.3874 6.23646 20.6631 6.01617 20.296 6.01617C19.595 5.9661 18.9442 6.21643 18.8941 7.11762C18.8441 8.01881 19.7953 8.16901 19.9956 8.16901C20.0028 8.16901 20.0113 8.16907 20.0208 8.16915C20.2744 8.17113 21.2991 8.17911 21.3474 7.11762Z" fill="var(--fill-0, #075056)"/>
<path fill-rule="evenodd" clip-rule="evenodd" d="M22.1279 19.5998C22.1358 19.689 22.1437 19.7787 22.1517 19.8695Z" fill="var(--fill-0, #075056)"/>
<path fill-rule="evenodd" clip-rule="evenodd" d="M0.716436 24.825C0.485425 25.7531 0.24306 26.7267 0.0191544 27.9631C-0.748526 32.202 21.7977 34.5636 24.7837 27.5042C25.0308 26.237 24.6944 25.2738 24.3535 24.2982C24.1423 23.6934 23.9293 23.0839 23.8527 22.3942C23.7792 21.7329 23.684 21.2263 23.5925 20.7393C23.3721 19.5672 23.1731 18.5086 23.35 15.6789C23.4337 14.3394 23.6462 12.8768 23.8527 11.4557C23.9501 10.785 24.0661 10.2023 24.1721 9.66914C24.5132 7.9545 24.7528 6.75041 23.9508 4.76452C23.4746 3.58528 22.5855 3.17614 21.5643 2.70613C21.1363 2.50916 20.6851 2.30151 20.2313 2.02201L20.155 1.97503C19.542 1.59735 19.1741 1.37065 18.5059 1.04253C18.2253 0.904746 17.9801 0.756186 17.7481 0.615601C17.1514 0.253986 16.6417 -0.0548608 15.8401 0.00823349C15.4168 0.0415511 15.1328 0.191713 14.8303 0.351706C14.6172 0.464374 14.3949 0.581917 14.1082 0.666964C13.2595 0.918782 12.7676 1.04216 11.8849 1.10969C11.1585 1.16525 10.5588 0.930709 9.98292 0.705481C9.26169 0.423421 8.57781 0.155966 7.72938 0.491177C7.05038 0.759447 6.71515 1.21037 6.35707 1.69203C6.10236 2.03463 5.8361 2.39278 5.42634 2.7118C4.83919 3.16893 4.27167 3.40211 3.71961 3.62893C3.04999 3.90405 2.40311 4.16983 1.77152 4.81458C-0.2433 6.87136 0.46547 9.6162 1.13656 12.2151C1.45837 13.4614 1.77152 14.6741 1.77152 15.7613C1.77153 20.5865 1.27747 22.5712 0.716436 24.825ZM2.94289 18.9199C2.98405 16.8345 3.01724 15.153 2.42238 12.6249C1.67138 8.86993 1.57125 8.02384 2.17205 6.54917C2.55946 5.59824 3.29458 5.2852 4.09408 4.94476C4.53441 4.75725 4.99428 4.56142 5.42634 4.24613C5.94795 3.86549 6.39403 3.35555 6.80809 2.88222C7.40529 2.19954 7.93589 1.59299 8.53044 1.56029C9.53722 1.50491 10.4048 1.8342 11.2032 2.13722C11.9929 2.43696 12.4541 2.54002 13.3368 2.44375C14.0935 2.36123 14.4706 2.06009 14.8197 1.78139C15.1319 1.53214 15.4216 1.30083 15.9402 1.25989C17.2046 1.16007 17.8111 1.71958 18.4982 2.35346C18.845 2.67339 19.2124 3.01226 19.6952 3.29488C20.0941 3.52836 20.4905 3.67792 20.8654 3.81938C21.6114 4.10087 22.2725 4.3503 22.6991 5.16504C23.5989 6.8832 23.3083 8.37738 22.733 11.3356C22.6796 11.6104 22.6237 11.8978 22.5661 12.1992C22.4487 12.8133 22.3241 13.4854 22.1985 14.227C21.8401 16.3425 21.9716 17.831 22.1279 19.5998C22.191 20.3135 22.258 21.0725 22.2986 21.9372C22.4443 22.8158 22.697 23.5619 22.9376 24.2165C20.2373 24.6111 16.0975 26.1516 21.1415 29.1575C17.0393 31.0567 8.7341 31.2329 4.45113 29.7556C9.02015 27.1078 5.00238 25.2949 2.42238 24.7194C2.51981 24.4032 2.61413 24.0604 2.69418 23.6822C2.83632 23.0107 2.93345 22.2281 2.92304 21.2863C2.9134 20.4143 2.92862 19.6428 2.94289 18.9199Z" fill="var(--fill-0, #075056)"/>
<path fill-rule="evenodd" clip-rule="evenodd" d="M14.3334 17.5346C16.6963 17.6872 18.9132 17.8304 18.7713 15.2409C18.7249 14.3935 18.5415 13.6291 18.2453 12.9537C17.264 10.7161 15.0444 9.45478 12.463 9.38317C8.31954 9.26823 4.80291 12.9379 6.05456 17.8443C6.32448 18.9024 7.87257 18.47 9.48862 18.0137C9.49541 18.0118 9.5022 18.0099 9.50899 18.008C10.1593 17.8243 10.8198 17.6378 11.4116 17.5439C12.2987 17.4032 13.3292 17.4698 14.3334 17.5346ZM8.60793 16.3424C8.32022 15.6663 8.52783 15.0406 9.40899 14.6401C10.5104 14.1394 11.0111 15.0406 10.961 15.4412C10.911 15.8417 8.99328 17.2478 8.60793 16.3424Z" fill="var(--fill-0, #075056)"/>
</g>
</svg>
