<svg preserveAspectRatio="none" width="100%" height="100%" overflow="visible" style="display: block;" viewBox="0 0 35.6928 21.737" fill="none" xmlns="http://www.w3.org/2000/svg">
<path id="Vector 3 (Stroke)" d="M14.6898 0.00305312C14.6898 0.00305312 14.6919 0.00406166 14.6977 0.00549561L20.7759 0.0122125C20.7845 0.0101083 20.7844 0.0103806 20.7844 0.0103806C20.7852 0.0137123 20.7868 0.0188675 20.7887 0.0268674C20.7937 0.0478768 20.8025 0.0846826 20.8155 0.136169C20.8417 0.239431 20.8843 0.401809 20.9444 0.614287C21.0648 1.03988 21.255 1.66389 21.5251 2.4199C22.0689 3.94242 22.9183 5.94846 24.1422 7.93566C26.6236 11.9644 30.2837 15.3993 35.6928 15.4854L35.5933 21.737C27.1109 21.602 21.8173 16.084 18.8182 11.2147C18.4276 10.5805 18.0699 9.94822 17.7429 9.3285C17.4104 9.96428 17.0472 10.6132 16.6493 11.263C13.6794 16.112 8.4073 21.6528 0 21.5159L0.101364 15.2644C5.26599 15.3485 8.83684 12.0463 11.3167 7.99734C12.5342 6.0095 13.3874 3.98857 13.9369 2.4486C14.2097 1.68401 14.4027 1.05148 14.5255 0.619172C14.5868 0.403465 14.6305 0.238621 14.6574 0.133116C14.6709 0.0804203 14.6802 0.042524 14.6855 0.0207612L14.6898 0.00305312ZM20.7844 0.00854873V0.0103806L20.7838 0.00732748L20.7844 0.00854873ZM14.6904 0L14.6898 0.00305312V0.00122125L14.6904 0Z" fill="var(--fill-0, white)"/>
</svg>
