<svg preserveAspectRatio="none" width="100%" height="100%" overflow="visible" style="display: block;" viewBox="0 0 62.2561 39.7621" fill="none" xmlns="http://www.w3.org/2000/svg">
<g id="Vector">
<mask id="path-1-outside-1_581_4360" maskUnits="userSpaceOnUse" x="-0.0942925" y="-0.0942495" width="63" height="40" fill="black">
<rect fill="white" x="-0.0942925" y="-0.0942495" width="63" height="40"/>
<path fill-rule="evenodd" clip-rule="evenodd" d="M3.97344 1.01153C2.08964 1.18515 1.47559 1.57887 1.12585 2.83816C0.810868 3.9718 0.843958 36.0916 1.16082 37.0116C1.2959 37.403 1.60062 37.8648 1.83811 38.0376C2.9684 38.8596 3.25154 38.8678 30.6544 38.8535C45.2253 38.8462 57.6888 38.7723 58.3512 38.6895C59.0767 38.5988 59.5554 38.6181 59.5554 38.7377C59.5554 39.0638 60.617 37.8173 60.8441 37.2244C61.1984 36.2995 61.4321 24.8731 61.3236 13.777C61.2124 2.4191 61.2013 2.30789 60.092 1.4352C59.5324 0.994985 59.4811 0.993731 43.4695 0.983259C34.6358 0.977395 22.5076 0.94703 16.518 0.915825C10.5283 0.88483 4.8832 0.927763 3.97344 1.01153ZM7.30314 22.3305C7.71173 22.506 7.71111 22.5108 7.27633 22.5252C7.0313 22.5332 6.73433 22.6578 6.61642 22.8017C6.38417 23.0855 6.17013 25.4863 6.3894 25.35C6.4627 25.3044 6.62501 25.3904 6.75025 25.5412C6.93015 25.758 6.83444 25.8131 6.29411 25.8038L5.61033 25.7923L5.61641 24.3232C5.62185 22.9939 5.67253 22.8193 6.14856 22.489C6.73789 22.0802 6.7247 22.0819 7.30314 22.3305ZM9.7635 22.4783C9.50402 22.5284 9.18904 22.7611 9.06359 22.9956C8.82652 23.4386 8.8906 24.884 9.17564 25.5266C9.30255 25.8124 9.26339 25.8662 9.00181 25.7659C8.73416 25.6633 8.66442 25.3203 8.66442 24.1056C8.66442 22.4899 8.74694 22.3535 9.71156 22.3755C10.197 22.3866 10.2008 22.3941 9.7635 22.4783ZM12.0676 22.5464C11.8086 22.6507 11.5964 22.8802 11.5964 23.0568C11.5964 23.2331 11.4921 23.3776 11.3646 23.3776C11.237 23.3776 11.1899 23.2285 11.2599 23.0463C11.3298 22.8641 11.387 22.6285 11.387 22.5227C11.387 22.417 11.646 22.3365 11.9629 22.3437C12.5164 22.3564 12.5206 22.3644 12.0676 22.5464ZM14.7789 22.4798C14.5135 22.5305 14.2128 22.7921 14.1106 23.0607C13.8327 23.7919 14.0465 25.3215 14.4735 25.6572C14.8172 25.9272 14.8139 25.9362 14.4237 25.7892C14.1933 25.7025 13.8922 25.6269 13.7544 25.6214C13.605 25.6156 13.5627 25.4776 13.6496 25.2799C13.7299 25.0974 13.7925 24.4137 13.7891 23.7602C13.7856 23.1066 13.8561 22.6174 13.9462 22.6731C14.036 22.7286 14.1096 22.6741 14.1096 22.5523C14.1096 22.4304 14.3688 22.3432 14.6855 22.359C15.1959 22.3843 15.2065 22.3979 14.7789 22.4798ZM19.4376 22.6281C19.118 22.862 19.0334 23.1711 19.0418 24.0748C19.0477 24.7069 19.1773 25.3975 19.3298 25.6097C19.4822 25.8218 19.3595 25.731 19.0573 25.4078C18.6051 24.9244 18.5075 24.6206 18.5075 23.6955C18.5075 22.55 18.5997 22.4306 19.5423 22.3548C19.7455 22.3384 19.7113 22.4276 19.4376 22.6281ZM22.4104 22.4827C22.0322 22.5393 21.77 22.7275 21.7007 22.9927C21.6192 23.3047 21.5476 23.3429 21.4224 23.1405C21.1616 22.7188 21.6307 22.3271 22.3552 22.3619L23.0102 22.3933L22.4104 22.4827ZM25.1525 22.457C25.083 22.5265 24.9022 22.534 24.7512 22.4735C24.5841 22.4067 24.6337 22.3571 24.8777 22.347C25.0985 22.338 25.222 22.3874 25.1525 22.457ZM27.155 22.5432C26.8958 22.6475 26.5994 23.0331 26.4811 23.4201L26.2698 24.1106L26.3598 23.2729C26.4095 22.8122 26.4535 22.4115 26.4579 22.3828C26.4623 22.3541 26.7251 22.3365 27.0417 22.3437C27.5879 22.3562 27.5938 22.3667 27.155 22.5432ZM32.4345 22.4771C31.4343 22.7114 31.1446 24.3454 31.9271 25.3402L32.362 25.8931L31.9099 25.8239C31.3853 25.7439 31.0644 25.3196 31.2207 24.9125C31.2969 24.7142 31.2127 24.6673 30.9394 24.7563C30.6322 24.8564 30.6133 24.838 30.8504 24.67C31.0921 24.4985 31.1 24.3952 30.891 24.1435C30.6799 23.889 30.6973 23.7933 30.9838 23.6329C31.2123 23.5052 31.2565 23.3862 31.1092 23.2951C30.7844 23.0945 31.0489 22.5437 31.4047 22.6802C31.5679 22.7428 31.7015 22.6899 31.7015 22.5623C31.7015 22.4348 31.9608 22.3414 32.2774 22.3548C32.7082 22.373 32.7478 22.4038 32.4345 22.4771ZM34.8429 22.5169C34.4056 22.6375 34.3087 22.8067 34.2551 23.5431C34.1707 24.6972 33.8278 24.6899 33.8689 23.5347C33.9043 22.5409 34.0791 22.3288 34.8429 22.3546L35.3665 22.3722L34.8429 22.5169ZM37.7182 22.457C37.6486 22.5265 37.4679 22.534 37.3169 22.4735C37.1498 22.4067 37.1994 22.3571 37.4434 22.347C37.6641 22.338 37.7877 22.3874 37.7182 22.457ZM39.8692 22.5171C39.3978 22.6473 39.3394 22.7833 39.2822 23.8809C39.2359 24.7701 39.3088 25.1996 39.5513 25.4679C39.8604 25.8093 39.8499 25.829 39.4055 25.7444C38.9649 25.6604 38.9316 25.5586 38.986 24.4631C39.0811 22.5516 39.1697 22.3275 39.8208 22.3514L40.3928 22.3722L39.8692 22.5171ZM44.8955 22.5169C44.4329 22.6448 44.3644 22.7908 44.308 23.7718C44.267 24.4817 44.3524 25.0474 44.5451 25.3414C44.8176 25.7569 44.8096 25.8009 44.462 25.8009C44.2506 25.8009 44.1158 25.7628 44.1625 25.7163C44.2092 25.6696 44.1103 25.4945 43.943 25.3274C43.5953 24.9795 43.5365 24.0939 43.8483 23.9012C43.9635 23.83 44.0578 23.6775 44.0578 23.5623C44.0578 23.4471 43.9635 23.4111 43.8483 23.4823C43.6123 23.6283 43.5765 23.3651 43.7656 22.8725C43.8351 22.6909 43.9765 22.5944 44.0798 22.6582C44.1828 22.7219 44.2672 22.6741 44.2672 22.5523C44.2672 22.4304 44.5265 22.3399 44.8431 22.3514L45.4191 22.3722L44.8955 22.5169ZM47.5133 22.4838C47.283 22.5414 47.0252 22.6953 46.9405 22.826C46.7041 23.191 46.7521 25.1504 47.0036 25.4019C47.1617 25.5601 47.1158 25.6543 46.8465 25.7249C46.5041 25.8145 46.4693 25.6809 46.498 24.3866C46.5387 22.5502 46.6331 22.3248 47.3498 22.3548C47.7919 22.3732 47.8312 22.4042 47.5133 22.4838ZM50.1312 22.4758C49.5775 22.6737 49.2935 23.226 49.2966 24.0983C49.3002 25.025 49.4449 25.3567 49.9111 25.5069C50.1565 25.5858 50.1465 25.6306 49.8587 25.741C49.6631 25.8162 49.5029 25.7808 49.5029 25.6625C49.5029 25.5439 49.4229 25.4966 49.3251 25.5571C49.2271 25.6177 49.1276 24.9959 49.1035 24.1755C49.0579 22.6103 49.2026 22.324 50.0265 22.3502C50.322 22.3596 50.3528 22.3967 50.1312 22.4758ZM52.4349 22.6004C51.9901 22.8245 51.9017 23.0325 51.8472 23.9816C51.7997 24.8091 51.8761 25.2015 52.1415 25.4947C52.5731 25.9716 52.3924 26.0277 51.9262 25.5617C51.527 25.1624 51.4696 22.9606 51.8485 22.5818C51.9867 22.4436 52.2929 22.3319 52.5291 22.3336C52.9132 22.3363 52.9032 22.3644 52.4349 22.6004ZM6.04804 22.747C5.97474 22.8656 6.05872 22.9007 6.24511 22.8293C6.60784 22.6901 6.67423 22.5399 6.37307 22.5399C6.26459 22.5399 6.11841 22.6331 6.04804 22.747ZM24.1269 23.0243C23.9049 23.4394 23.9828 24.8331 24.267 25.5266C24.3803 25.8032 24.3384 25.865 24.0993 25.773C23.6758 25.6105 23.6574 22.6096 24.0798 22.6096C24.2831 22.6096 24.2947 22.7112 24.1269 23.0243ZM36.7605 23.8183C36.7184 24.5632 36.7841 25.1931 36.9175 25.3266C37.2551 25.6641 37.1967 25.9835 36.8499 25.6958C36.4978 25.4034 36.3029 22.7948 36.6231 22.6607C36.7383 22.6124 36.8325 22.5655 36.8325 22.556C36.8325 22.5468 36.8 23.1148 36.7605 23.8183ZM7.82671 24.0059C7.82671 24.5818 7.75592 25.0528 7.66964 25.0524C7.58335 25.052 7.51194 24.5808 7.5111 24.0053C7.51005 23.4298 7.58084 22.9588 7.66817 22.9588C7.75529 22.9588 7.82671 23.43 7.82671 24.0059ZM10.3398 24.0409C10.3398 24.6359 10.2795 25.0625 10.2058 24.9887C10.0127 24.7956 9.98926 22.9588 10.1798 22.9588C10.2678 22.9588 10.3398 23.4457 10.3398 24.0409ZM12.853 24.0059C12.853 24.5818 12.7671 25.053 12.662 25.053C12.5571 25.053 12.5028 24.888 12.5414 24.6865C12.5799 24.4851 12.6186 24.0139 12.6274 23.6394C12.6534 22.5372 12.853 22.8616 12.853 24.0059ZM15.3066 24.5818C15.2587 24.8985 15.2195 24.6394 15.2195 24.0059C15.2195 23.3724 15.2587 23.1133 15.3066 23.43C15.3546 23.7466 15.3546 24.2652 15.3066 24.5818ZM20.3329 24.5818C20.285 24.8985 20.2458 24.6394 20.2458 24.0059C20.2458 23.3724 20.285 23.1133 20.3329 23.43C20.3809 23.7466 20.3809 24.2652 20.3329 24.5818ZM22.8909 24.0583C22.8819 24.7341 22.818 25.0103 22.7254 24.7751C22.5795 24.4049 22.6578 22.9588 22.8236 22.9588C22.8687 22.9588 22.8988 23.4536 22.8909 24.0583ZM25.3592 24.5818C25.3112 24.8985 25.2721 24.6394 25.2721 24.0059C25.2721 23.3724 25.3112 23.1133 25.3592 23.43C25.4072 23.7466 25.4072 24.2652 25.3592 24.5818ZM27.9318 24.0059C27.9318 24.5818 27.861 25.053 27.7747 25.053C27.6884 25.053 27.6177 24.5818 27.6177 24.0059C27.6177 23.43 27.6884 22.9588 27.7747 22.9588C27.861 22.9588 27.9318 23.43 27.9318 24.0059ZM32.9581 24.0059C32.9581 24.5818 32.8795 25.053 32.7836 25.053C32.6877 25.053 32.6328 24.8411 32.6615 24.5818C32.6902 24.3226 32.7216 23.8513 32.7313 23.5347C32.7621 22.5152 32.9581 22.9223 32.9581 24.0059ZM35.4712 24.0059C35.4712 24.5818 35.4004 25.053 35.3141 25.053C35.2279 25.053 35.1571 24.5818 35.1571 24.0059C35.1571 23.43 35.2279 22.9588 35.3141 22.9588C35.4004 22.9588 35.4712 23.43 35.4712 24.0059ZM45.4995 24.0583C45.4741 25.2007 45.3918 25.0909 45.2637 23.7441C45.2226 23.3123 45.2643 22.9588 45.3564 22.9588C45.4484 22.9588 45.5129 23.4536 45.4995 24.0583ZM48.2463 23.7391C48.2463 24.4099 48.0985 24.3006 47.9579 23.5257C47.8983 23.1958 47.9374 23.0019 48.0501 23.0716C48.1579 23.1382 48.2463 23.4386 48.2463 23.7391ZM50.7595 24.0409C50.7595 24.6359 50.7 25.0633 50.6273 24.9906C50.4248 24.7881 50.3865 22.9588 50.5848 22.9588C50.6809 22.9588 50.7595 23.4457 50.7595 24.0409ZM53.2726 24.0059C53.2726 24.5818 53.202 25.053 53.1155 25.0532C53.029 25.0532 52.9911 24.582 53.0311 24.0061C53.1247 22.6549 53.2726 22.6549 53.2726 24.0059ZM40.5878 24.1372C40.5471 24.555 40.4692 24.9416 40.4146 24.9965C40.2916 25.1192 40.309 23.7527 40.433 23.5347C40.6135 23.217 40.6596 23.3958 40.5878 24.1372ZM11.7954 25.564C11.947 25.7467 11.9214 25.821 11.707 25.821C11.5411 25.821 11.454 25.7425 11.5133 25.6463C11.5725 25.5504 11.539 25.4719 11.4385 25.4719C11.338 25.4719 11.2458 25.0243 11.2335 24.4771L11.2111 23.4823L11.3966 24.3948C11.4986 24.8966 11.6781 25.4227 11.7954 25.564ZM21.3687 24.2677C21.3107 24.4118 21.2632 24.2939 21.2632 24.0059C21.2632 23.7179 21.3107 23.6002 21.3687 23.7441C21.427 23.8882 21.427 24.1238 21.3687 24.2677ZM38.0472 23.8679C38.1065 24.0222 38.0708 24.2815 37.9682 24.4438C37.8321 24.6585 37.7804 24.582 37.7781 24.163C37.7747 23.5376 37.8773 23.4249 38.0472 23.8679ZM26.8181 25.3224C27.0951 25.8711 27.0897 25.8916 26.7272 25.6652C26.5006 25.5236 26.3295 25.154 26.3119 24.7676C26.2953 24.4063 26.3362 24.252 26.4026 24.4248C26.469 24.5975 26.656 25.0015 26.8181 25.3224ZM5.87212 24.5644C5.67693 24.7596 5.69787 25.053 5.90688 25.053C6.00301 25.053 6.08155 24.9117 6.08155 24.7389C6.08155 24.3831 6.06626 24.3703 5.87212 24.5644ZM48.1766 24.7389C48.1766 24.9117 48.0981 25.053 48.0019 25.053C47.7929 25.053 47.772 24.7596 47.9672 24.5644C48.1613 24.3703 48.1766 24.3831 48.1766 24.7389ZM21.649 25.1381C21.649 25.2866 21.8609 25.5136 22.1202 25.6426C22.5614 25.8625 22.5514 25.8723 21.9631 25.7967C21.6175 25.7521 21.2452 25.7079 21.1359 25.6985C21.0265 25.6891 21.0427 25.5756 21.1719 25.4463C21.3011 25.3171 21.3509 25.066 21.2829 24.8884C21.2014 24.6765 21.2431 24.6174 21.4039 24.7169C21.5388 24.8003 21.649 24.9898 21.649 25.1381ZM34.2146 24.8436C34.2146 24.9588 34.1732 25.053 34.1223 25.053C34.0714 25.053 33.9717 24.9588 33.9005 24.8436C33.8293 24.7284 33.871 24.6342 33.9929 24.6342C34.1147 24.6342 34.2146 24.7284 34.2146 24.8436ZM34.6603 25.629C34.9206 25.9611 34.9133 25.9684 34.5811 25.7081C34.3795 25.55 34.2146 25.385 34.2146 25.3416C34.2146 25.1693 34.3866 25.2801 34.6603 25.629ZM30.3779 28.7006C30.1501 29.171 29.8874 29.7914 29.7945 30.0793C29.6368 30.5677 29.6296 30.5606 29.6872 29.9746C29.7214 29.629 29.8585 29.081 29.9924 28.7568C30.126 28.4326 30.2355 28.0948 30.2355 28.0064C30.2355 27.9178 30.3608 27.8453 30.5138 27.8453C30.7231 27.8453 30.6893 28.0577 30.3779 28.7006ZM31.8198 28.3888C31.3872 28.8669 31.4039 29.6328 31.8586 30.1457C32.1465 30.4707 32.1579 30.538 31.9109 30.4598C31.1754 30.227 30.926 28.1945 31.633 28.1945C31.8085 28.1945 31.8728 28.0929 31.7863 27.9526C31.6908 27.7982 31.7292 27.7679 31.8923 27.8688C32.0864 27.9888 32.0691 28.1136 31.8198 28.3888ZM26.2564 28.22C26.2564 28.0908 26.4124 27.985 26.603 27.985C26.9255 27.985 26.9255 28.0116 26.603 28.3681C26.1083 28.9147 26.1655 29.7823 26.7219 30.1721C27.0177 30.3792 27.0748 30.4927 26.879 30.4835C26.4537 30.4632 25.6679 30.1122 26.007 30.094C26.1577 30.086 26.2218 29.9836 26.1496 29.8665C26.0771 29.7495 25.9538 29.6933 25.8754 29.7417C25.7969 29.7903 25.7328 29.5652 25.7328 29.2416C25.7328 28.918 25.8036 28.6971 25.8899 28.7505C26.1439 28.9074 26.0698 28.5132 25.7852 28.194C25.5625 27.9444 25.578 27.9419 25.8899 28.1779C26.1358 28.3639 26.2564 28.3779 26.2564 28.22ZM28.3465 28.3042C28.2007 28.4797 28.0384 28.5802 27.9856 28.5277C27.8405 28.3823 28.1356 27.985 28.3886 27.985C28.5276 27.985 28.5117 28.1052 28.3465 28.3042ZM33.4492 28.5176C33.3809 28.6954 33.2802 28.7959 33.2253 28.7411C33.1704 28.6862 33.1876 28.5406 33.2636 28.4179C33.4701 28.0837 33.5908 28.1486 33.4492 28.5176ZM34.1439 29.5034C34.0859 29.6475 34.0383 29.5296 34.0383 29.2416C34.0383 28.9536 34.0859 28.8359 34.1439 28.9798C34.2021 29.1239 34.2021 29.3595 34.1439 29.5034ZM28.2459 30.0793C28.4543 30.3097 28.5779 30.4982 28.5203 30.4982C28.4627 30.4982 28.2449 30.3097 28.0365 30.0793C27.8281 29.8489 27.7046 29.6605 27.7622 29.6605C27.8198 29.6605 28.0376 29.8489 28.2459 30.0793ZM33.45 29.9679C33.5149 30.1369 33.4976 30.3189 33.4113 30.3723C33.325 30.4255 33.2408 30.2873 33.2241 30.0649C33.1878 29.5838 33.2865 29.5415 33.45 29.9679ZM10.4969 32.6745C10.2676 32.8486 10.1304 33.2341 10.1304 33.7047C10.1304 34.1998 10.2557 34.5295 10.4969 34.67C10.841 34.8704 10.8398 34.8838 10.4772 34.8899C10.2638 34.8932 10.0422 34.7087 9.98172 34.4773C9.92141 34.2469 9.77858 34.0584 9.66444 34.0584C9.4215 34.0584 9.63743 33.039 9.9635 32.6461C10.0835 32.5014 10.335 32.386 10.5225 32.3897C10.8251 32.3956 10.8222 32.4276 10.4969 32.6745ZM12.0335 32.8674C11.7143 33.1866 11.7503 33.8859 12.1127 34.4032C12.4859 34.9362 12.2737 35.2472 11.8856 34.7357C11.4241 34.1282 11.5704 32.2128 12.0555 32.5127C12.187 32.5939 12.179 32.7219 12.0335 32.8674ZM13.8168 33.0444C13.5864 33.3732 13.4813 33.4235 13.4813 33.2046C13.4813 32.8685 13.915 32.3282 14.0645 32.4777C14.1129 32.5259 14.0013 32.7809 13.8168 33.0444ZM15.785 32.5801C15.785 32.6886 15.6907 32.8354 15.5755 32.9066C15.3142 33.0681 15.3075 34.0601 15.5649 34.4673C15.6708 34.6346 15.7046 34.8568 15.6403 34.9609C15.2949 35.5196 14.9768 33.5144 15.2838 32.7143C15.4214 32.356 15.785 32.2586 15.785 32.5801ZM19.1783 33.0113C18.8424 33.6032 18.8424 33.676 19.1783 34.2679C19.3746 34.6134 19.4454 34.8962 19.3354 34.8962C19.0893 34.8962 19.1651 35.3575 19.45 35.5927C19.575 35.696 19.5327 35.7312 19.3453 35.6801C19.1725 35.6329 19.0343 35.4137 19.038 35.1929C19.042 34.9722 18.9832 34.7443 18.9073 34.6867C18.5352 34.4038 18.5117 33.3005 18.8684 32.8542C19.4062 32.1813 19.5953 32.2771 19.1783 33.0113ZM22.5964 33.1372C22.3346 33.6394 22.2796 33.6702 22.2785 33.315C22.2779 33.0787 22.3887 32.7742 22.525 32.6379C22.912 32.2509 22.9436 32.4716 22.5964 33.1372ZM26.0895 33.0113C25.76 33.5916 25.7586 33.6848 26.0696 34.2329C26.3429 34.7146 26.3519 34.8264 26.1171 34.8264C25.6187 34.8264 25.4754 33.3342 25.9075 32.6448C26.2593 32.0837 26.4258 32.419 26.0895 33.0113ZM27.9701 32.8473C27.586 33.2314 27.6639 34.4233 28.0889 34.6647C28.4191 34.8524 28.4124 34.8702 28.0212 34.8428C27.6604 34.8176 27.5789 34.6572 27.5393 33.8938C27.4958 33.0524 27.8325 32.214 28.1048 32.4863C28.167 32.5485 28.1065 32.711 27.9701 32.8473ZM6.36071 32.8624C6.36071 32.7522 6.48804 32.6622 6.64344 32.6622C6.8646 32.6622 6.87926 32.787 6.71025 33.2346C6.54061 33.684 6.56972 33.9219 6.84638 34.3441C7.03989 34.6396 7.19843 34.919 7.19843 34.9646C7.19843 35.1058 6.1228 34.9385 5.97578 34.7745C5.89955 34.6895 6.00196 34.6792 6.20364 34.7514C6.40532 34.8239 6.57014 34.7917 6.57014 34.6802C6.57014 34.5686 6.42312 34.4773 6.24364 34.4773C6.03442 34.4773 5.9762 34.3833 6.08134 34.2155C6.28699 33.8876 6.18584 33.2142 5.86898 32.8019C5.65913 32.5286 5.67525 32.525 5.99421 32.7751C6.19589 32.9332 6.36071 32.9726 6.36071 32.8624ZM20.978 33.0019C20.6892 33.4645 20.4856 33.4069 20.6741 32.9156C20.7424 32.7378 20.8961 32.5925 21.0159 32.5925C21.1537 32.5925 21.1398 32.7426 20.978 33.0019ZM29.5373 33.1007C29.4053 33.3803 29.2644 33.5759 29.2238 33.5355C29.0939 33.4054 29.4196 32.5925 29.6016 32.5925C29.6981 32.5925 29.6692 32.8211 29.5373 33.1007ZM5.93536 33.9537C5.93536 34.0689 5.84405 34.0218 5.73243 33.849C5.6208 33.6762 5.52949 33.4406 5.52949 33.3254C5.52949 33.2103 5.6208 33.2574 5.73243 33.4302C5.84405 33.6029 5.93536 33.8385 5.93536 33.9537ZM20.9784 34.8616C20.885 34.9003 20.8709 35.0327 20.947 35.1558C21.0232 35.279 20.9972 35.3253 20.8894 35.2587C20.7815 35.1919 20.6724 34.8239 20.6466 34.4409C20.5999 33.746 20.6006 33.7456 20.8739 34.2679C21.0247 34.5558 21.0716 34.8231 20.9784 34.8616ZM29.9036 34.7359C30.0556 34.8388 30.0579 34.8907 29.9109 34.893C29.5852 34.8976 29.1875 34.44 29.1947 34.0689C29.1995 33.8283 29.2625 33.8526 29.4386 34.1632C29.5693 34.3935 29.7785 34.6513 29.9036 34.7359ZM13.7634 34.9678C13.591 35.0648 13.3941 35.0882 13.3259 35.0201C13.2578 34.9519 13.3033 34.8962 13.4268 34.8962C13.5531 34.8962 13.6027 34.6901 13.5401 34.4249C13.4306 33.9611 13.4339 33.9602 13.7529 34.3726C14.0394 34.7431 14.0407 34.8118 13.7634 34.9678ZM22.8988 34.9634C22.9026 35.0581 22.7642 34.9942 22.5914 34.8214C22.4186 34.6486 22.2772 34.3883 22.2772 34.2427C22.2772 33.9615 22.8875 34.6689 22.8988 34.9634ZM14.2032 35.5422C14.1357 35.6514 13.9914 35.6855 13.8823 35.6181C13.7732 35.5506 13.7391 35.4063 13.8065 35.2972C13.8739 35.1881 14.0182 35.154 14.1274 35.2214C14.2365 35.2888 14.2706 35.4331 14.2032 35.5422ZM29.563 35.608C29.4146 35.7693 29.26 35.8698 29.2198 35.8315C29.0956 35.7133 29.4104 35.315 29.6278 35.315C29.7408 35.315 29.7117 35.447 29.563 35.608Z"/>
</mask>
<path fill-rule="evenodd" clip-rule="evenodd" d="M3.97344 1.01153C2.08964 1.18515 1.47559 1.57887 1.12585 2.83816C0.810868 3.9718 0.843958 36.0916 1.16082 37.0116C1.2959 37.403 1.60062 37.8648 1.83811 38.0376C2.9684 38.8596 3.25154 38.8678 30.6544 38.8535C45.2253 38.8462 57.6888 38.7723 58.3512 38.6895C59.0767 38.5988 59.5554 38.6181 59.5554 38.7377C59.5554 39.0638 60.617 37.8173 60.8441 37.2244C61.1984 36.2995 61.4321 24.8731 61.3236 13.777C61.2124 2.4191 61.2013 2.30789 60.092 1.4352C59.5324 0.994985 59.4811 0.993731 43.4695 0.983259C34.6358 0.977395 22.5076 0.94703 16.518 0.915825C10.5283 0.88483 4.8832 0.927763 3.97344 1.01153ZM7.30314 22.3305C7.71173 22.506 7.71111 22.5108 7.27633 22.5252C7.0313 22.5332 6.73433 22.6578 6.61642 22.8017C6.38417 23.0855 6.17013 25.4863 6.3894 25.35C6.4627 25.3044 6.62501 25.3904 6.75025 25.5412C6.93015 25.758 6.83444 25.8131 6.29411 25.8038L5.61033 25.7923L5.61641 24.3232C5.62185 22.9939 5.67253 22.8193 6.14856 22.489C6.73789 22.0802 6.7247 22.0819 7.30314 22.3305ZM9.7635 22.4783C9.50402 22.5284 9.18904 22.7611 9.06359 22.9956C8.82652 23.4386 8.8906 24.884 9.17564 25.5266C9.30255 25.8124 9.26339 25.8662 9.00181 25.7659C8.73416 25.6633 8.66442 25.3203 8.66442 24.1056C8.66442 22.4899 8.74694 22.3535 9.71156 22.3755C10.197 22.3866 10.2008 22.3941 9.7635 22.4783ZM12.0676 22.5464C11.8086 22.6507 11.5964 22.8802 11.5964 23.0568C11.5964 23.2331 11.4921 23.3776 11.3646 23.3776C11.237 23.3776 11.1899 23.2285 11.2599 23.0463C11.3298 22.8641 11.387 22.6285 11.387 22.5227C11.387 22.417 11.646 22.3365 11.9629 22.3437C12.5164 22.3564 12.5206 22.3644 12.0676 22.5464ZM14.7789 22.4798C14.5135 22.5305 14.2128 22.7921 14.1106 23.0607C13.8327 23.7919 14.0465 25.3215 14.4735 25.6572C14.8172 25.9272 14.8139 25.9362 14.4237 25.7892C14.1933 25.7025 13.8922 25.6269 13.7544 25.6214C13.605 25.6156 13.5627 25.4776 13.6496 25.2799C13.7299 25.0974 13.7925 24.4137 13.7891 23.7602C13.7856 23.1066 13.8561 22.6174 13.9462 22.6731C14.036 22.7286 14.1096 22.6741 14.1096 22.5523C14.1096 22.4304 14.3688 22.3432 14.6855 22.359C15.1959 22.3843 15.2065 22.3979 14.7789 22.4798ZM19.4376 22.6281C19.118 22.862 19.0334 23.1711 19.0418 24.0748C19.0477 24.7069 19.1773 25.3975 19.3298 25.6097C19.4822 25.8218 19.3595 25.731 19.0573 25.4078C18.6051 24.9244 18.5075 24.6206 18.5075 23.6955C18.5075 22.55 18.5997 22.4306 19.5423 22.3548C19.7455 22.3384 19.7113 22.4276 19.4376 22.6281ZM22.4104 22.4827C22.0322 22.5393 21.77 22.7275 21.7007 22.9927C21.6192 23.3047 21.5476 23.3429 21.4224 23.1405C21.1616 22.7188 21.6307 22.3271 22.3552 22.3619L23.0102 22.3933L22.4104 22.4827ZM25.1525 22.457C25.083 22.5265 24.9022 22.534 24.7512 22.4735C24.5841 22.4067 24.6337 22.3571 24.8777 22.347C25.0985 22.338 25.222 22.3874 25.1525 22.457ZM27.155 22.5432C26.8958 22.6475 26.5994 23.0331 26.4811 23.4201L26.2698 24.1106L26.3598 23.2729C26.4095 22.8122 26.4535 22.4115 26.4579 22.3828C26.4623 22.3541 26.7251 22.3365 27.0417 22.3437C27.5879 22.3562 27.5938 22.3667 27.155 22.5432ZM32.4345 22.4771C31.4343 22.7114 31.1446 24.3454 31.9271 25.3402L32.362 25.8931L31.9099 25.8239C31.3853 25.7439 31.0644 25.3196 31.2207 24.9125C31.2969 24.7142 31.2127 24.6673 30.9394 24.7563C30.6322 24.8564 30.6133 24.838 30.8504 24.67C31.0921 24.4985 31.1 24.3952 30.891 24.1435C30.6799 23.889 30.6973 23.7933 30.9838 23.6329C31.2123 23.5052 31.2565 23.3862 31.1092 23.2951C30.7844 23.0945 31.0489 22.5437 31.4047 22.6802C31.5679 22.7428 31.7015 22.6899 31.7015 22.5623C31.7015 22.4348 31.9608 22.3414 32.2774 22.3548C32.7082 22.373 32.7478 22.4038 32.4345 22.4771ZM34.8429 22.5169C34.4056 22.6375 34.3087 22.8067 34.2551 23.5431C34.1707 24.6972 33.8278 24.6899 33.8689 23.5347C33.9043 22.5409 34.0791 22.3288 34.8429 22.3546L35.3665 22.3722L34.8429 22.5169ZM37.7182 22.457C37.6486 22.5265 37.4679 22.534 37.3169 22.4735C37.1498 22.4067 37.1994 22.3571 37.4434 22.347C37.6641 22.338 37.7877 22.3874 37.7182 22.457ZM39.8692 22.5171C39.3978 22.6473 39.3394 22.7833 39.2822 23.8809C39.2359 24.7701 39.3088 25.1996 39.5513 25.4679C39.8604 25.8093 39.8499 25.829 39.4055 25.7444C38.9649 25.6604 38.9316 25.5586 38.986 24.4631C39.0811 22.5516 39.1697 22.3275 39.8208 22.3514L40.3928 22.3722L39.8692 22.5171ZM44.8955 22.5169C44.4329 22.6448 44.3644 22.7908 44.308 23.7718C44.267 24.4817 44.3524 25.0474 44.5451 25.3414C44.8176 25.7569 44.8096 25.8009 44.462 25.8009C44.2506 25.8009 44.1158 25.7628 44.1625 25.7163C44.2092 25.6696 44.1103 25.4945 43.943 25.3274C43.5953 24.9795 43.5365 24.0939 43.8483 23.9012C43.9635 23.83 44.0578 23.6775 44.0578 23.5623C44.0578 23.4471 43.9635 23.4111 43.8483 23.4823C43.6123 23.6283 43.5765 23.3651 43.7656 22.8725C43.8351 22.6909 43.9765 22.5944 44.0798 22.6582C44.1828 22.7219 44.2672 22.6741 44.2672 22.5523C44.2672 22.4304 44.5265 22.3399 44.8431 22.3514L45.4191 22.3722L44.8955 22.5169ZM47.5133 22.4838C47.283 22.5414 47.0252 22.6953 46.9405 22.826C46.7041 23.191 46.7521 25.1504 47.0036 25.4019C47.1617 25.5601 47.1158 25.6543 46.8465 25.7249C46.5041 25.8145 46.4693 25.6809 46.498 24.3866C46.5387 22.5502 46.6331 22.3248 47.3498 22.3548C47.7919 22.3732 47.8312 22.4042 47.5133 22.4838ZM50.1312 22.4758C49.5775 22.6737 49.2935 23.226 49.2966 24.0983C49.3002 25.025 49.4449 25.3567 49.9111 25.5069C50.1565 25.5858 50.1465 25.6306 49.8587 25.741C49.6631 25.8162 49.5029 25.7808 49.5029 25.6625C49.5029 25.5439 49.4229 25.4966 49.3251 25.5571C49.2271 25.6177 49.1276 24.9959 49.1035 24.1755C49.0579 22.6103 49.2026 22.324 50.0265 22.3502C50.322 22.3596 50.3528 22.3967 50.1312 22.4758ZM52.4349 22.6004C51.9901 22.8245 51.9017 23.0325 51.8472 23.9816C51.7997 24.8091 51.8761 25.2015 52.1415 25.4947C52.5731 25.9716 52.3924 26.0277 51.9262 25.5617C51.527 25.1624 51.4696 22.9606 51.8485 22.5818C51.9867 22.4436 52.2929 22.3319 52.5291 22.3336C52.9132 22.3363 52.9032 22.3644 52.4349 22.6004ZM6.04804 22.747C5.97474 22.8656 6.05872 22.9007 6.24511 22.8293C6.60784 22.6901 6.67423 22.5399 6.37307 22.5399C6.26459 22.5399 6.11841 22.6331 6.04804 22.747ZM24.1269 23.0243C23.9049 23.4394 23.9828 24.8331 24.267 25.5266C24.3803 25.8032 24.3384 25.865 24.0993 25.773C23.6758 25.6105 23.6574 22.6096 24.0798 22.6096C24.2831 22.6096 24.2947 22.7112 24.1269 23.0243ZM36.7605 23.8183C36.7184 24.5632 36.7841 25.1931 36.9175 25.3266C37.2551 25.6641 37.1967 25.9835 36.8499 25.6958C36.4978 25.4034 36.3029 22.7948 36.6231 22.6607C36.7383 22.6124 36.8325 22.5655 36.8325 22.556C36.8325 22.5468 36.8 23.1148 36.7605 23.8183ZM7.82671 24.0059C7.82671 24.5818 7.75592 25.0528 7.66964 25.0524C7.58335 25.052 7.51194 24.5808 7.5111 24.0053C7.51005 23.4298 7.58084 22.9588 7.66817 22.9588C7.75529 22.9588 7.82671 23.43 7.82671 24.0059ZM10.3398 24.0409C10.3398 24.6359 10.2795 25.0625 10.2058 24.9887C10.0127 24.7956 9.98926 22.9588 10.1798 22.9588C10.2678 22.9588 10.3398 23.4457 10.3398 24.0409ZM12.853 24.0059C12.853 24.5818 12.7671 25.053 12.662 25.053C12.5571 25.053 12.5028 24.888 12.5414 24.6865C12.5799 24.4851 12.6186 24.0139 12.6274 23.6394C12.6534 22.5372 12.853 22.8616 12.853 24.0059ZM15.3066 24.5818C15.2587 24.8985 15.2195 24.6394 15.2195 24.0059C15.2195 23.3724 15.2587 23.1133 15.3066 23.43C15.3546 23.7466 15.3546 24.2652 15.3066 24.5818ZM20.3329 24.5818C20.285 24.8985 20.2458 24.6394 20.2458 24.0059C20.2458 23.3724 20.285 23.1133 20.3329 23.43C20.3809 23.7466 20.3809 24.2652 20.3329 24.5818ZM22.8909 24.0583C22.8819 24.7341 22.818 25.0103 22.7254 24.7751C22.5795 24.4049 22.6578 22.9588 22.8236 22.9588C22.8687 22.9588 22.8988 23.4536 22.8909 24.0583ZM25.3592 24.5818C25.3112 24.8985 25.2721 24.6394 25.2721 24.0059C25.2721 23.3724 25.3112 23.1133 25.3592 23.43C25.4072 23.7466 25.4072 24.2652 25.3592 24.5818ZM27.9318 24.0059C27.9318 24.5818 27.861 25.053 27.7747 25.053C27.6884 25.053 27.6177 24.5818 27.6177 24.0059C27.6177 23.43 27.6884 22.9588 27.7747 22.9588C27.861 22.9588 27.9318 23.43 27.9318 24.0059ZM32.9581 24.0059C32.9581 24.5818 32.8795 25.053 32.7836 25.053C32.6877 25.053 32.6328 24.8411 32.6615 24.5818C32.6902 24.3226 32.7216 23.8513 32.7313 23.5347C32.7621 22.5152 32.9581 22.9223 32.9581 24.0059ZM35.4712 24.0059C35.4712 24.5818 35.4004 25.053 35.3141 25.053C35.2279 25.053 35.1571 24.5818 35.1571 24.0059C35.1571 23.43 35.2279 22.9588 35.3141 22.9588C35.4004 22.9588 35.4712 23.43 35.4712 24.0059ZM45.4995 24.0583C45.4741 25.2007 45.3918 25.0909 45.2637 23.7441C45.2226 23.3123 45.2643 22.9588 45.3564 22.9588C45.4484 22.9588 45.5129 23.4536 45.4995 24.0583ZM48.2463 23.7391C48.2463 24.4099 48.0985 24.3006 47.9579 23.5257C47.8983 23.1958 47.9374 23.0019 48.0501 23.0716C48.1579 23.1382 48.2463 23.4386 48.2463 23.7391ZM50.7595 24.0409C50.7595 24.6359 50.7 25.0633 50.6273 24.9906C50.4248 24.7881 50.3865 22.9588 50.5848 22.9588C50.6809 22.9588 50.7595 23.4457 50.7595 24.0409ZM53.2726 24.0059C53.2726 24.5818 53.202 25.053 53.1155 25.0532C53.029 25.0532 52.9911 24.582 53.0311 24.0061C53.1247 22.6549 53.2726 22.6549 53.2726 24.0059ZM40.5878 24.1372C40.5471 24.555 40.4692 24.9416 40.4146 24.9965C40.2916 25.1192 40.309 23.7527 40.433 23.5347C40.6135 23.217 40.6596 23.3958 40.5878 24.1372ZM11.7954 25.564C11.947 25.7467 11.9214 25.821 11.707 25.821C11.5411 25.821 11.454 25.7425 11.5133 25.6463C11.5725 25.5504 11.539 25.4719 11.4385 25.4719C11.338 25.4719 11.2458 25.0243 11.2335 24.4771L11.2111 23.4823L11.3966 24.3948C11.4986 24.8966 11.6781 25.4227 11.7954 25.564ZM21.3687 24.2677C21.3107 24.4118 21.2632 24.2939 21.2632 24.0059C21.2632 23.7179 21.3107 23.6002 21.3687 23.7441C21.427 23.8882 21.427 24.1238 21.3687 24.2677ZM38.0472 23.8679C38.1065 24.0222 38.0708 24.2815 37.9682 24.4438C37.8321 24.6585 37.7804 24.582 37.7781 24.163C37.7747 23.5376 37.8773 23.4249 38.0472 23.8679ZM26.8181 25.3224C27.0951 25.8711 27.0897 25.8916 26.7272 25.6652C26.5006 25.5236 26.3295 25.154 26.3119 24.7676C26.2953 24.4063 26.3362 24.252 26.4026 24.4248C26.469 24.5975 26.656 25.0015 26.8181 25.3224ZM5.87212 24.5644C5.67693 24.7596 5.69787 25.053 5.90688 25.053C6.00301 25.053 6.08155 24.9117 6.08155 24.7389C6.08155 24.3831 6.06626 24.3703 5.87212 24.5644ZM48.1766 24.7389C48.1766 24.9117 48.0981 25.053 48.0019 25.053C47.7929 25.053 47.772 24.7596 47.9672 24.5644C48.1613 24.3703 48.1766 24.3831 48.1766 24.7389ZM21.649 25.1381C21.649 25.2866 21.8609 25.5136 22.1202 25.6426C22.5614 25.8625 22.5514 25.8723 21.9631 25.7967C21.6175 25.7521 21.2452 25.7079 21.1359 25.6985C21.0265 25.6891 21.0427 25.5756 21.1719 25.4463C21.3011 25.3171 21.3509 25.066 21.2829 24.8884C21.2014 24.6765 21.2431 24.6174 21.4039 24.7169C21.5388 24.8003 21.649 24.9898 21.649 25.1381ZM34.2146 24.8436C34.2146 24.9588 34.1732 25.053 34.1223 25.053C34.0714 25.053 33.9717 24.9588 33.9005 24.8436C33.8293 24.7284 33.871 24.6342 33.9929 24.6342C34.1147 24.6342 34.2146 24.7284 34.2146 24.8436ZM34.6603 25.629C34.9206 25.9611 34.9133 25.9684 34.5811 25.7081C34.3795 25.55 34.2146 25.385 34.2146 25.3416C34.2146 25.1693 34.3866 25.2801 34.6603 25.629ZM30.3779 28.7006C30.1501 29.171 29.8874 29.7914 29.7945 30.0793C29.6368 30.5677 29.6296 30.5606 29.6872 29.9746C29.7214 29.629 29.8585 29.081 29.9924 28.7568C30.126 28.4326 30.2355 28.0948 30.2355 28.0064C30.2355 27.9178 30.3608 27.8453 30.5138 27.8453C30.7231 27.8453 30.6893 28.0577 30.3779 28.7006ZM31.8198 28.3888C31.3872 28.8669 31.4039 29.6328 31.8586 30.1457C32.1465 30.4707 32.1579 30.538 31.9109 30.4598C31.1754 30.227 30.926 28.1945 31.633 28.1945C31.8085 28.1945 31.8728 28.0929 31.7863 27.9526C31.6908 27.7982 31.7292 27.7679 31.8923 27.8688C32.0864 27.9888 32.0691 28.1136 31.8198 28.3888ZM26.2564 28.22C26.2564 28.0908 26.4124 27.985 26.603 27.985C26.9255 27.985 26.9255 28.0116 26.603 28.3681C26.1083 28.9147 26.1655 29.7823 26.7219 30.1721C27.0177 30.3792 27.0748 30.4927 26.879 30.4835C26.4537 30.4632 25.6679 30.1122 26.007 30.094C26.1577 30.086 26.2218 29.9836 26.1496 29.8665C26.0771 29.7495 25.9538 29.6933 25.8754 29.7417C25.7969 29.7903 25.7328 29.5652 25.7328 29.2416C25.7328 28.918 25.8036 28.6971 25.8899 28.7505C26.1439 28.9074 26.0698 28.5132 25.7852 28.194C25.5625 27.9444 25.578 27.9419 25.8899 28.1779C26.1358 28.3639 26.2564 28.3779 26.2564 28.22ZM28.3465 28.3042C28.2007 28.4797 28.0384 28.5802 27.9856 28.5277C27.8405 28.3823 28.1356 27.985 28.3886 27.985C28.5276 27.985 28.5117 28.1052 28.3465 28.3042ZM33.4492 28.5176C33.3809 28.6954 33.2802 28.7959 33.2253 28.7411C33.1704 28.6862 33.1876 28.5406 33.2636 28.4179C33.4701 28.0837 33.5908 28.1486 33.4492 28.5176ZM34.1439 29.5034C34.0859 29.6475 34.0383 29.5296 34.0383 29.2416C34.0383 28.9536 34.0859 28.8359 34.1439 28.9798C34.2021 29.1239 34.2021 29.3595 34.1439 29.5034ZM28.2459 30.0793C28.4543 30.3097 28.5779 30.4982 28.5203 30.4982C28.4627 30.4982 28.2449 30.3097 28.0365 30.0793C27.8281 29.8489 27.7046 29.6605 27.7622 29.6605C27.8198 29.6605 28.0376 29.8489 28.2459 30.0793ZM33.45 29.9679C33.5149 30.1369 33.4976 30.3189 33.4113 30.3723C33.325 30.4255 33.2408 30.2873 33.2241 30.0649C33.1878 29.5838 33.2865 29.5415 33.45 29.9679ZM10.4969 32.6745C10.2676 32.8486 10.1304 33.2341 10.1304 33.7047C10.1304 34.1998 10.2557 34.5295 10.4969 34.67C10.841 34.8704 10.8398 34.8838 10.4772 34.8899C10.2638 34.8932 10.0422 34.7087 9.98172 34.4773C9.92141 34.2469 9.77858 34.0584 9.66444 34.0584C9.4215 34.0584 9.63743 33.039 9.9635 32.6461C10.0835 32.5014 10.335 32.386 10.5225 32.3897C10.8251 32.3956 10.8222 32.4276 10.4969 32.6745ZM12.0335 32.8674C11.7143 33.1866 11.7503 33.8859 12.1127 34.4032C12.4859 34.9362 12.2737 35.2472 11.8856 34.7357C11.4241 34.1282 11.5704 32.2128 12.0555 32.5127C12.187 32.5939 12.179 32.7219 12.0335 32.8674ZM13.8168 33.0444C13.5864 33.3732 13.4813 33.4235 13.4813 33.2046C13.4813 32.8685 13.915 32.3282 14.0645 32.4777C14.1129 32.5259 14.0013 32.7809 13.8168 33.0444ZM15.785 32.5801C15.785 32.6886 15.6907 32.8354 15.5755 32.9066C15.3142 33.0681 15.3075 34.0601 15.5649 34.4673C15.6708 34.6346 15.7046 34.8568 15.6403 34.9609C15.2949 35.5196 14.9768 33.5144 15.2838 32.7143C15.4214 32.356 15.785 32.2586 15.785 32.5801ZM19.1783 33.0113C18.8424 33.6032 18.8424 33.676 19.1783 34.2679C19.3746 34.6134 19.4454 34.8962 19.3354 34.8962C19.0893 34.8962 19.1651 35.3575 19.45 35.5927C19.575 35.696 19.5327 35.7312 19.3453 35.6801C19.1725 35.6329 19.0343 35.4137 19.038 35.1929C19.042 34.9722 18.9832 34.7443 18.9073 34.6867C18.5352 34.4038 18.5117 33.3005 18.8684 32.8542C19.4062 32.1813 19.5953 32.2771 19.1783 33.0113ZM22.5964 33.1372C22.3346 33.6394 22.2796 33.6702 22.2785 33.315C22.2779 33.0787 22.3887 32.7742 22.525 32.6379C22.912 32.2509 22.9436 32.4716 22.5964 33.1372ZM26.0895 33.0113C25.76 33.5916 25.7586 33.6848 26.0696 34.2329C26.3429 34.7146 26.3519 34.8264 26.1171 34.8264C25.6187 34.8264 25.4754 33.3342 25.9075 32.6448C26.2593 32.0837 26.4258 32.419 26.0895 33.0113ZM27.9701 32.8473C27.586 33.2314 27.6639 34.4233 28.0889 34.6647C28.4191 34.8524 28.4124 34.8702 28.0212 34.8428C27.6604 34.8176 27.5789 34.6572 27.5393 33.8938C27.4958 33.0524 27.8325 32.214 28.1048 32.4863C28.167 32.5485 28.1065 32.711 27.9701 32.8473ZM6.36071 32.8624C6.36071 32.7522 6.48804 32.6622 6.64344 32.6622C6.8646 32.6622 6.87926 32.787 6.71025 33.2346C6.54061 33.684 6.56972 33.9219 6.84638 34.3441C7.03989 34.6396 7.19843 34.919 7.19843 34.9646C7.19843 35.1058 6.1228 34.9385 5.97578 34.7745C5.89955 34.6895 6.00196 34.6792 6.20364 34.7514C6.40532 34.8239 6.57014 34.7917 6.57014 34.6802C6.57014 34.5686 6.42312 34.4773 6.24364 34.4773C6.03442 34.4773 5.9762 34.3833 6.08134 34.2155C6.28699 33.8876 6.18584 33.2142 5.86898 32.8019C5.65913 32.5286 5.67525 32.525 5.99421 32.7751C6.19589 32.9332 6.36071 32.9726 6.36071 32.8624ZM20.978 33.0019C20.6892 33.4645 20.4856 33.4069 20.6741 32.9156C20.7424 32.7378 20.8961 32.5925 21.0159 32.5925C21.1537 32.5925 21.1398 32.7426 20.978 33.0019ZM29.5373 33.1007C29.4053 33.3803 29.2644 33.5759 29.2238 33.5355C29.0939 33.4054 29.4196 32.5925 29.6016 32.5925C29.6981 32.5925 29.6692 32.8211 29.5373 33.1007ZM5.93536 33.9537C5.93536 34.0689 5.84405 34.0218 5.73243 33.849C5.6208 33.6762 5.52949 33.4406 5.52949 33.3254C5.52949 33.2103 5.6208 33.2574 5.73243 33.4302C5.84405 33.6029 5.93536 33.8385 5.93536 33.9537ZM20.9784 34.8616C20.885 34.9003 20.8709 35.0327 20.947 35.1558C21.0232 35.279 20.9972 35.3253 20.8894 35.2587C20.7815 35.1919 20.6724 34.8239 20.6466 34.4409C20.5999 33.746 20.6006 33.7456 20.8739 34.2679C21.0247 34.5558 21.0716 34.8231 20.9784 34.8616ZM29.9036 34.7359C30.0556 34.8388 30.0579 34.8907 29.9109 34.893C29.5852 34.8976 29.1875 34.44 29.1947 34.0689C29.1995 33.8283 29.2625 33.8526 29.4386 34.1632C29.5693 34.3935 29.7785 34.6513 29.9036 34.7359ZM13.7634 34.9678C13.591 35.0648 13.3941 35.0882 13.3259 35.0201C13.2578 34.9519 13.3033 34.8962 13.4268 34.8962C13.5531 34.8962 13.6027 34.6901 13.5401 34.4249C13.4306 33.9611 13.4339 33.9602 13.7529 34.3726C14.0394 34.7431 14.0407 34.8118 13.7634 34.9678ZM22.8988 34.9634C22.9026 35.0581 22.7642 34.9942 22.5914 34.8214C22.4186 34.6486 22.2772 34.3883 22.2772 34.2427C22.2772 33.9615 22.8875 34.6689 22.8988 34.9634ZM14.2032 35.5422C14.1357 35.6514 13.9914 35.6855 13.8823 35.6181C13.7732 35.5506 13.7391 35.4063 13.8065 35.2972C13.8739 35.1881 14.0182 35.154 14.1274 35.2214C14.2365 35.2888 14.2706 35.4331 14.2032 35.5422ZM29.563 35.608C29.4146 35.7693 29.26 35.8698 29.2198 35.8315C29.0956 35.7133 29.4104 35.315 29.6278 35.315C29.7408 35.315 29.7117 35.447 29.563 35.608Z" fill="var(--fill-0, white)"/>
<path fill-rule="evenodd" clip-rule="evenodd" d="M3.97344 1.01153C2.08964 1.18515 1.47559 1.57887 1.12585 2.83816C0.810868 3.9718 0.843958 36.0916 1.16082 37.0116C1.2959 37.403 1.60062 37.8648 1.83811 38.0376C2.9684 38.8596 3.25154 38.8678 30.6544 38.8535C45.2253 38.8462 57.6888 38.7723 58.3512 38.6895C59.0767 38.5988 59.5554 38.6181 59.5554 38.7377C59.5554 39.0638 60.617 37.8173 60.8441 37.2244C61.1984 36.2995 61.4321 24.8731 61.3236 13.777C61.2124 2.4191 61.2013 2.30789 60.092 1.4352C59.5324 0.994985 59.4811 0.993731 43.4695 0.983259C34.6358 0.977395 22.5076 0.94703 16.518 0.915825C10.5283 0.88483 4.8832 0.927763 3.97344 1.01153ZM7.30314 22.3305C7.71173 22.506 7.71111 22.5108 7.27633 22.5252C7.0313 22.5332 6.73433 22.6578 6.61642 22.8017C6.38417 23.0855 6.17013 25.4863 6.3894 25.35C6.4627 25.3044 6.62501 25.3904 6.75025 25.5412C6.93015 25.758 6.83444 25.8131 6.29411 25.8038L5.61033 25.7923L5.61641 24.3232C5.62185 22.9939 5.67253 22.8193 6.14856 22.489C6.73789 22.0802 6.7247 22.0819 7.30314 22.3305ZM9.7635 22.4783C9.50402 22.5284 9.18904 22.7611 9.06359 22.9956C8.82652 23.4386 8.8906 24.884 9.17564 25.5266C9.30255 25.8124 9.26339 25.8662 9.00181 25.7659C8.73416 25.6633 8.66442 25.3203 8.66442 24.1056C8.66442 22.4899 8.74694 22.3535 9.71156 22.3755C10.197 22.3866 10.2008 22.3941 9.7635 22.4783ZM12.0676 22.5464C11.8086 22.6507 11.5964 22.8802 11.5964 23.0568C11.5964 23.2331 11.4921 23.3776 11.3646 23.3776C11.237 23.3776 11.1899 23.2285 11.2599 23.0463C11.3298 22.8641 11.387 22.6285 11.387 22.5227C11.387 22.417 11.646 22.3365 11.9629 22.3437C12.5164 22.3564 12.5206 22.3644 12.0676 22.5464ZM14.7789 22.4798C14.5135 22.5305 14.2128 22.7921 14.1106 23.0607C13.8327 23.7919 14.0465 25.3215 14.4735 25.6572C14.8172 25.9272 14.8139 25.9362 14.4237 25.7892C14.1933 25.7025 13.8922 25.6269 13.7544 25.6214C13.605 25.6156 13.5627 25.4776 13.6496 25.2799C13.7299 25.0974 13.7925 24.4137 13.7891 23.7602C13.7856 23.1066 13.8561 22.6174 13.9462 22.6731C14.036 22.7286 14.1096 22.6741 14.1096 22.5523C14.1096 22.4304 14.3688 22.3432 14.6855 22.359C15.1959 22.3843 15.2065 22.3979 14.7789 22.4798ZM19.4376 22.6281C19.118 22.862 19.0334 23.1711 19.0418 24.0748C19.0477 24.7069 19.1773 25.3975 19.3298 25.6097C19.4822 25.8218 19.3595 25.731 19.0573 25.4078C18.6051 24.9244 18.5075 24.6206 18.5075 23.6955C18.5075 22.55 18.5997 22.4306 19.5423 22.3548C19.7455 22.3384 19.7113 22.4276 19.4376 22.6281ZM22.4104 22.4827C22.0322 22.5393 21.77 22.7275 21.7007 22.9927C21.6192 23.3047 21.5476 23.3429 21.4224 23.1405C21.1616 22.7188 21.6307 22.3271 22.3552 22.3619L23.0102 22.3933L22.4104 22.4827ZM25.1525 22.457C25.083 22.5265 24.9022 22.534 24.7512 22.4735C24.5841 22.4067 24.6337 22.3571 24.8777 22.347C25.0985 22.338 25.222 22.3874 25.1525 22.457ZM27.155 22.5432C26.8958 22.6475 26.5994 23.0331 26.4811 23.4201L26.2698 24.1106L26.3598 23.2729C26.4095 22.8122 26.4535 22.4115 26.4579 22.3828C26.4623 22.3541 26.7251 22.3365 27.0417 22.3437C27.5879 22.3562 27.5938 22.3667 27.155 22.5432ZM32.4345 22.4771C31.4343 22.7114 31.1446 24.3454 31.9271 25.3402L32.362 25.8931L31.9099 25.8239C31.3853 25.7439 31.0644 25.3196 31.2207 24.9125C31.2969 24.7142 31.2127 24.6673 30.9394 24.7563C30.6322 24.8564 30.6133 24.838 30.8504 24.67C31.0921 24.4985 31.1 24.3952 30.891 24.1435C30.6799 23.889 30.6973 23.7933 30.9838 23.6329C31.2123 23.5052 31.2565 23.3862 31.1092 23.2951C30.7844 23.0945 31.0489 22.5437 31.4047 22.6802C31.5679 22.7428 31.7015 22.6899 31.7015 22.5623C31.7015 22.4348 31.9608 22.3414 32.2774 22.3548C32.7082 22.373 32.7478 22.4038 32.4345 22.4771ZM34.8429 22.5169C34.4056 22.6375 34.3087 22.8067 34.2551 23.5431C34.1707 24.6972 33.8278 24.6899 33.8689 23.5347C33.9043 22.5409 34.0791 22.3288 34.8429 22.3546L35.3665 22.3722L34.8429 22.5169ZM37.7182 22.457C37.6486 22.5265 37.4679 22.534 37.3169 22.4735C37.1498 22.4067 37.1994 22.3571 37.4434 22.347C37.6641 22.338 37.7877 22.3874 37.7182 22.457ZM39.8692 22.5171C39.3978 22.6473 39.3394 22.7833 39.2822 23.8809C39.2359 24.7701 39.3088 25.1996 39.5513 25.4679C39.8604 25.8093 39.8499 25.829 39.4055 25.7444C38.9649 25.6604 38.9316 25.5586 38.986 24.4631C39.0811 22.5516 39.1697 22.3275 39.8208 22.3514L40.3928 22.3722L39.8692 22.5171ZM44.8955 22.5169C44.4329 22.6448 44.3644 22.7908 44.308 23.7718C44.267 24.4817 44.3524 25.0474 44.5451 25.3414C44.8176 25.7569 44.8096 25.8009 44.462 25.8009C44.2506 25.8009 44.1158 25.7628 44.1625 25.7163C44.2092 25.6696 44.1103 25.4945 43.943 25.3274C43.5953 24.9795 43.5365 24.0939 43.8483 23.9012C43.9635 23.83 44.0578 23.6775 44.0578 23.5623C44.0578 23.4471 43.9635 23.4111 43.8483 23.4823C43.6123 23.6283 43.5765 23.3651 43.7656 22.8725C43.8351 22.6909 43.9765 22.5944 44.0798 22.6582C44.1828 22.7219 44.2672 22.6741 44.2672 22.5523C44.2672 22.4304 44.5265 22.3399 44.8431 22.3514L45.4191 22.3722L44.8955 22.5169ZM47.5133 22.4838C47.283 22.5414 47.0252 22.6953 46.9405 22.826C46.7041 23.191 46.7521 25.1504 47.0036 25.4019C47.1617 25.5601 47.1158 25.6543 46.8465 25.7249C46.5041 25.8145 46.4693 25.6809 46.498 24.3866C46.5387 22.5502 46.6331 22.3248 47.3498 22.3548C47.7919 22.3732 47.8312 22.4042 47.5133 22.4838ZM50.1312 22.4758C49.5775 22.6737 49.2935 23.226 49.2966 24.0983C49.3002 25.025 49.4449 25.3567 49.9111 25.5069C50.1565 25.5858 50.1465 25.6306 49.8587 25.741C49.6631 25.8162 49.5029 25.7808 49.5029 25.6625C49.5029 25.5439 49.4229 25.4966 49.3251 25.5571C49.2271 25.6177 49.1276 24.9959 49.1035 24.1755C49.0579 22.6103 49.2026 22.324 50.0265 22.3502C50.322 22.3596 50.3528 22.3967 50.1312 22.4758ZM52.4349 22.6004C51.9901 22.8245 51.9017 23.0325 51.8472 23.9816C51.7997 24.8091 51.8761 25.2015 52.1415 25.4947C52.5731 25.9716 52.3924 26.0277 51.9262 25.5617C51.527 25.1624 51.4696 22.9606 51.8485 22.5818C51.9867 22.4436 52.2929 22.3319 52.5291 22.3336C52.9132 22.3363 52.9032 22.3644 52.4349 22.6004ZM6.04804 22.747C5.97474 22.8656 6.05872 22.9007 6.24511 22.8293C6.60784 22.6901 6.67423 22.5399 6.37307 22.5399C6.26459 22.5399 6.11841 22.6331 6.04804 22.747ZM24.1269 23.0243C23.9049 23.4394 23.9828 24.8331 24.267 25.5266C24.3803 25.8032 24.3384 25.865 24.0993 25.773C23.6758 25.6105 23.6574 22.6096 24.0798 22.6096C24.2831 22.6096 24.2947 22.7112 24.1269 23.0243ZM36.7605 23.8183C36.7184 24.5632 36.7841 25.1931 36.9175 25.3266C37.2551 25.6641 37.1967 25.9835 36.8499 25.6958C36.4978 25.4034 36.3029 22.7948 36.6231 22.6607C36.7383 22.6124 36.8325 22.5655 36.8325 22.556C36.8325 22.5468 36.8 23.1148 36.7605 23.8183ZM7.82671 24.0059C7.82671 24.5818 7.75592 25.0528 7.66964 25.0524C7.58335 25.052 7.51194 24.5808 7.5111 24.0053C7.51005 23.4298 7.58084 22.9588 7.66817 22.9588C7.75529 22.9588 7.82671 23.43 7.82671 24.0059ZM10.3398 24.0409C10.3398 24.6359 10.2795 25.0625 10.2058 24.9887C10.0127 24.7956 9.98926 22.9588 10.1798 22.9588C10.2678 22.9588 10.3398 23.4457 10.3398 24.0409ZM12.853 24.0059C12.853 24.5818 12.7671 25.053 12.662 25.053C12.5571 25.053 12.5028 24.888 12.5414 24.6865C12.5799 24.4851 12.6186 24.0139 12.6274 23.6394C12.6534 22.5372 12.853 22.8616 12.853 24.0059ZM15.3066 24.5818C15.2587 24.8985 15.2195 24.6394 15.2195 24.0059C15.2195 23.3724 15.2587 23.1133 15.3066 23.43C15.3546 23.7466 15.3546 24.2652 15.3066 24.5818ZM20.3329 24.5818C20.285 24.8985 20.2458 24.6394 20.2458 24.0059C20.2458 23.3724 20.285 23.1133 20.3329 23.43C20.3809 23.7466 20.3809 24.2652 20.3329 24.5818ZM22.8909 24.0583C22.8819 24.7341 22.818 25.0103 22.7254 24.7751C22.5795 24.4049 22.6578 22.9588 22.8236 22.9588C22.8687 22.9588 22.8988 23.4536 22.8909 24.0583ZM25.3592 24.5818C25.3112 24.8985 25.2721 24.6394 25.2721 24.0059C25.2721 23.3724 25.3112 23.1133 25.3592 23.43C25.4072 23.7466 25.4072 24.2652 25.3592 24.5818ZM27.9318 24.0059C27.9318 24.5818 27.861 25.053 27.7747 25.053C27.6884 25.053 27.6177 24.5818 27.6177 24.0059C27.6177 23.43 27.6884 22.9588 27.7747 22.9588C27.861 22.9588 27.9318 23.43 27.9318 24.0059ZM32.9581 24.0059C32.9581 24.5818 32.8795 25.053 32.7836 25.053C32.6877 25.053 32.6328 24.8411 32.6615 24.5818C32.6902 24.3226 32.7216 23.8513 32.7313 23.5347C32.7621 22.5152 32.9581 22.9223 32.9581 24.0059ZM35.4712 24.0059C35.4712 24.5818 35.4004 25.053 35.3141 25.053C35.2279 25.053 35.1571 24.5818 35.1571 24.0059C35.1571 23.43 35.2279 22.9588 35.3141 22.9588C35.4004 22.9588 35.4712 23.43 35.4712 24.0059ZM45.4995 24.0583C45.4741 25.2007 45.3918 25.0909 45.2637 23.7441C45.2226 23.3123 45.2643 22.9588 45.3564 22.9588C45.4484 22.9588 45.5129 23.4536 45.4995 24.0583ZM48.2463 23.7391C48.2463 24.4099 48.0985 24.3006 47.9579 23.5257C47.8983 23.1958 47.9374 23.0019 48.0501 23.0716C48.1579 23.1382 48.2463 23.4386 48.2463 23.7391ZM50.7595 24.0409C50.7595 24.6359 50.7 25.0633 50.6273 24.9906C50.4248 24.7881 50.3865 22.9588 50.5848 22.9588C50.6809 22.9588 50.7595 23.4457 50.7595 24.0409ZM53.2726 24.0059C53.2726 24.5818 53.202 25.053 53.1155 25.0532C53.029 25.0532 52.9911 24.582 53.0311 24.0061C53.1247 22.6549 53.2726 22.6549 53.2726 24.0059ZM40.5878 24.1372C40.5471 24.555 40.4692 24.9416 40.4146 24.9965C40.2916 25.1192 40.309 23.7527 40.433 23.5347C40.6135 23.217 40.6596 23.3958 40.5878 24.1372ZM11.7954 25.564C11.947 25.7467 11.9214 25.821 11.707 25.821C11.5411 25.821 11.454 25.7425 11.5133 25.6463C11.5725 25.5504 11.539 25.4719 11.4385 25.4719C11.338 25.4719 11.2458 25.0243 11.2335 24.4771L11.2111 23.4823L11.3966 24.3948C11.4986 24.8966 11.6781 25.4227 11.7954 25.564ZM21.3687 24.2677C21.3107 24.4118 21.2632 24.2939 21.2632 24.0059C21.2632 23.7179 21.3107 23.6002 21.3687 23.7441C21.427 23.8882 21.427 24.1238 21.3687 24.2677ZM38.0472 23.8679C38.1065 24.0222 38.0708 24.2815 37.9682 24.4438C37.8321 24.6585 37.7804 24.582 37.7781 24.163C37.7747 23.5376 37.8773 23.4249 38.0472 23.8679ZM26.8181 25.3224C27.0951 25.8711 27.0897 25.8916 26.7272 25.6652C26.5006 25.5236 26.3295 25.154 26.3119 24.7676C26.2953 24.4063 26.3362 24.252 26.4026 24.4248C26.469 24.5975 26.656 25.0015 26.8181 25.3224ZM5.87212 24.5644C5.67693 24.7596 5.69787 25.053 5.90688 25.053C6.00301 25.053 6.08155 24.9117 6.08155 24.7389C6.08155 24.3831 6.06626 24.3703 5.87212 24.5644ZM48.1766 24.7389C48.1766 24.9117 48.0981 25.053 48.0019 25.053C47.7929 25.053 47.772 24.7596 47.9672 24.5644C48.1613 24.3703 48.1766 24.3831 48.1766 24.7389ZM21.649 25.1381C21.649 25.2866 21.8609 25.5136 22.1202 25.6426C22.5614 25.8625 22.5514 25.8723 21.9631 25.7967C21.6175 25.7521 21.2452 25.7079 21.1359 25.6985C21.0265 25.6891 21.0427 25.5756 21.1719 25.4463C21.3011 25.3171 21.3509 25.066 21.2829 24.8884C21.2014 24.6765 21.2431 24.6174 21.4039 24.7169C21.5388 24.8003 21.649 24.9898 21.649 25.1381ZM34.2146 24.8436C34.2146 24.9588 34.1732 25.053 34.1223 25.053C34.0714 25.053 33.9717 24.9588 33.9005 24.8436C33.8293 24.7284 33.871 24.6342 33.9929 24.6342C34.1147 24.6342 34.2146 24.7284 34.2146 24.8436ZM34.6603 25.629C34.9206 25.9611 34.9133 25.9684 34.5811 25.7081C34.3795 25.55 34.2146 25.385 34.2146 25.3416C34.2146 25.1693 34.3866 25.2801 34.6603 25.629ZM30.3779 28.7006C30.1501 29.171 29.8874 29.7914 29.7945 30.0793C29.6368 30.5677 29.6296 30.5606 29.6872 29.9746C29.7214 29.629 29.8585 29.081 29.9924 28.7568C30.126 28.4326 30.2355 28.0948 30.2355 28.0064C30.2355 27.9178 30.3608 27.8453 30.5138 27.8453C30.7231 27.8453 30.6893 28.0577 30.3779 28.7006ZM31.8198 28.3888C31.3872 28.8669 31.4039 29.6328 31.8586 30.1457C32.1465 30.4707 32.1579 30.538 31.9109 30.4598C31.1754 30.227 30.926 28.1945 31.633 28.1945C31.8085 28.1945 31.8728 28.0929 31.7863 27.9526C31.6908 27.7982 31.7292 27.7679 31.8923 27.8688C32.0864 27.9888 32.0691 28.1136 31.8198 28.3888ZM26.2564 28.22C26.2564 28.0908 26.4124 27.985 26.603 27.985C26.9255 27.985 26.9255 28.0116 26.603 28.3681C26.1083 28.9147 26.1655 29.7823 26.7219 30.1721C27.0177 30.3792 27.0748 30.4927 26.879 30.4835C26.4537 30.4632 25.6679 30.1122 26.007 30.094C26.1577 30.086 26.2218 29.9836 26.1496 29.8665C26.0771 29.7495 25.9538 29.6933 25.8754 29.7417C25.7969 29.7903 25.7328 29.5652 25.7328 29.2416C25.7328 28.918 25.8036 28.6971 25.8899 28.7505C26.1439 28.9074 26.0698 28.5132 25.7852 28.194C25.5625 27.9444 25.578 27.9419 25.8899 28.1779C26.1358 28.3639 26.2564 28.3779 26.2564 28.22ZM28.3465 28.3042C28.2007 28.4797 28.0384 28.5802 27.9856 28.5277C27.8405 28.3823 28.1356 27.985 28.3886 27.985C28.5276 27.985 28.5117 28.1052 28.3465 28.3042ZM33.4492 28.5176C33.3809 28.6954 33.2802 28.7959 33.2253 28.7411C33.1704 28.6862 33.1876 28.5406 33.2636 28.4179C33.4701 28.0837 33.5908 28.1486 33.4492 28.5176ZM34.1439 29.5034C34.0859 29.6475 34.0383 29.5296 34.0383 29.2416C34.0383 28.9536 34.0859 28.8359 34.1439 28.9798C34.2021 29.1239 34.2021 29.3595 34.1439 29.5034ZM28.2459 30.0793C28.4543 30.3097 28.5779 30.4982 28.5203 30.4982C28.4627 30.4982 28.2449 30.3097 28.0365 30.0793C27.8281 29.8489 27.7046 29.6605 27.7622 29.6605C27.8198 29.6605 28.0376 29.8489 28.2459 30.0793ZM33.45 29.9679C33.5149 30.1369 33.4976 30.3189 33.4113 30.3723C33.325 30.4255 33.2408 30.2873 33.2241 30.0649C33.1878 29.5838 33.2865 29.5415 33.45 29.9679ZM10.4969 32.6745C10.2676 32.8486 10.1304 33.2341 10.1304 33.7047C10.1304 34.1998 10.2557 34.5295 10.4969 34.67C10.841 34.8704 10.8398 34.8838 10.4772 34.8899C10.2638 34.8932 10.0422 34.7087 9.98172 34.4773C9.92141 34.2469 9.77858 34.0584 9.66444 34.0584C9.4215 34.0584 9.63743 33.039 9.9635 32.6461C10.0835 32.5014 10.335 32.386 10.5225 32.3897C10.8251 32.3956 10.8222 32.4276 10.4969 32.6745ZM12.0335 32.8674C11.7143 33.1866 11.7503 33.8859 12.1127 34.4032C12.4859 34.9362 12.2737 35.2472 11.8856 34.7357C11.4241 34.1282 11.5704 32.2128 12.0555 32.5127C12.187 32.5939 12.179 32.7219 12.0335 32.8674ZM13.8168 33.0444C13.5864 33.3732 13.4813 33.4235 13.4813 33.2046C13.4813 32.8685 13.915 32.3282 14.0645 32.4777C14.1129 32.5259 14.0013 32.7809 13.8168 33.0444ZM15.785 32.5801C15.785 32.6886 15.6907 32.8354 15.5755 32.9066C15.3142 33.0681 15.3075 34.0601 15.5649 34.4673C15.6708 34.6346 15.7046 34.8568 15.6403 34.9609C15.2949 35.5196 14.9768 33.5144 15.2838 32.7143C15.4214 32.356 15.785 32.2586 15.785 32.5801ZM19.1783 33.0113C18.8424 33.6032 18.8424 33.676 19.1783 34.2679C19.3746 34.6134 19.4454 34.8962 19.3354 34.8962C19.0893 34.8962 19.1651 35.3575 19.45 35.5927C19.575 35.696 19.5327 35.7312 19.3453 35.6801C19.1725 35.6329 19.0343 35.4137 19.038 35.1929C19.042 34.9722 18.9832 34.7443 18.9073 34.6867C18.5352 34.4038 18.5117 33.3005 18.8684 32.8542C19.4062 32.1813 19.5953 32.2771 19.1783 33.0113ZM22.5964 33.1372C22.3346 33.6394 22.2796 33.6702 22.2785 33.315C22.2779 33.0787 22.3887 32.7742 22.525 32.6379C22.912 32.2509 22.9436 32.4716 22.5964 33.1372ZM26.0895 33.0113C25.76 33.5916 25.7586 33.6848 26.0696 34.2329C26.3429 34.7146 26.3519 34.8264 26.1171 34.8264C25.6187 34.8264 25.4754 33.3342 25.9075 32.6448C26.2593 32.0837 26.4258 32.419 26.0895 33.0113ZM27.9701 32.8473C27.586 33.2314 27.6639 34.4233 28.0889 34.6647C28.4191 34.8524 28.4124 34.8702 28.0212 34.8428C27.6604 34.8176 27.5789 34.6572 27.5393 33.8938C27.4958 33.0524 27.8325 32.214 28.1048 32.4863C28.167 32.5485 28.1065 32.711 27.9701 32.8473ZM6.36071 32.8624C6.36071 32.7522 6.48804 32.6622 6.64344 32.6622C6.8646 32.6622 6.87926 32.787 6.71025 33.2346C6.54061 33.684 6.56972 33.9219 6.84638 34.3441C7.03989 34.6396 7.19843 34.919 7.19843 34.9646C7.19843 35.1058 6.1228 34.9385 5.97578 34.7745C5.89955 34.6895 6.00196 34.6792 6.20364 34.7514C6.40532 34.8239 6.57014 34.7917 6.57014 34.6802C6.57014 34.5686 6.42312 34.4773 6.24364 34.4773C6.03442 34.4773 5.9762 34.3833 6.08134 34.2155C6.28699 33.8876 6.18584 33.2142 5.86898 32.8019C5.65913 32.5286 5.67525 32.525 5.99421 32.7751C6.19589 32.9332 6.36071 32.9726 6.36071 32.8624ZM20.978 33.0019C20.6892 33.4645 20.4856 33.4069 20.6741 32.9156C20.7424 32.7378 20.8961 32.5925 21.0159 32.5925C21.1537 32.5925 21.1398 32.7426 20.978 33.0019ZM29.5373 33.1007C29.4053 33.3803 29.2644 33.5759 29.2238 33.5355C29.0939 33.4054 29.4196 32.5925 29.6016 32.5925C29.6981 32.5925 29.6692 32.8211 29.5373 33.1007ZM5.93536 33.9537C5.93536 34.0689 5.84405 34.0218 5.73243 33.849C5.6208 33.6762 5.52949 33.4406 5.52949 33.3254C5.52949 33.2103 5.6208 33.2574 5.73243 33.4302C5.84405 33.6029 5.93536 33.8385 5.93536 33.9537ZM20.9784 34.8616C20.885 34.9003 20.8709 35.0327 20.947 35.1558C21.0232 35.279 20.9972 35.3253 20.8894 35.2587C20.7815 35.1919 20.6724 34.8239 20.6466 34.4409C20.5999 33.746 20.6006 33.7456 20.8739 34.2679C21.0247 34.5558 21.0716 34.8231 20.9784 34.8616ZM29.9036 34.7359C30.0556 34.8388 30.0579 34.8907 29.9109 34.893C29.5852 34.8976 29.1875 34.44 29.1947 34.0689C29.1995 33.8283 29.2625 33.8526 29.4386 34.1632C29.5693 34.3935 29.7785 34.6513 29.9036 34.7359ZM13.7634 34.9678C13.591 35.0648 13.3941 35.0882 13.3259 35.0201C13.2578 34.9519 13.3033 34.8962 13.4268 34.8962C13.5531 34.8962 13.6027 34.6901 13.5401 34.4249C13.4306 33.9611 13.4339 33.9602 13.7529 34.3726C14.0394 34.7431 14.0407 34.8118 13.7634 34.9678ZM22.8988 34.9634C22.9026 35.0581 22.7642 34.9942 22.5914 34.8214C22.4186 34.6486 22.2772 34.3883 22.2772 34.2427C22.2772 33.9615 22.8875 34.6689 22.8988 34.9634ZM14.2032 35.5422C14.1357 35.6514 13.9914 35.6855 13.8823 35.6181C13.7732 35.5506 13.7391 35.4063 13.8065 35.2972C13.8739 35.1881 14.0182 35.154 14.1274 35.2214C14.2365 35.2888 14.2706 35.4331 14.2032 35.5422ZM29.563 35.608C29.4146 35.7693 29.26 35.8698 29.2198 35.8315C29.0956 35.7133 29.4104 35.315 29.6278 35.315C29.7408 35.315 29.7117 35.447 29.563 35.608Z" stroke="var(--stroke-0, white)" stroke-width="1.81141" mask="url(#path-1-outside-1_581_4360)"/>
</g>
</svg>
