<svg xmlns="http://www.w3.org/2000/svg" width="28" height="36" viewBox="0 0 28 36" fill="none">
  <path fill-rule="evenodd" clip-rule="evenodd" d="M5.65396 9.97867C4.79783 9.93361 4.3585 9.13381 4.24585 8.57057C4.1332 8.00732 5.09072 7.04981 5.76661 7.04981C6.4425 7.04981 6.72412 7.66938 6.72412 8.28894C6.72412 8.90851 6.72412 10.035 5.65396 9.97867Z" fill="#075056"/>
  <path fill-rule="evenodd" clip-rule="evenodd" d="M10.7232 4.62786C9.59667 4.67292 8.7994 5.15105 8.92077 6.03597C9.02121 6.76819 9.5854 7.16246 10.4415 7.16246C11.5117 7.16246 12.1313 6.37392 12.1313 6.03597C12.1313 5.69803 12.1313 4.57154 10.7232 4.62786Z" fill="#075056"/>
  <path fill-rule="evenodd" clip-rule="evenodd" d="M19.2281 5.30376C19.2732 4.53774 18.1955 4.19604 17.651 4.12094C16.7499 4.06462 16.4119 4.85316 16.4119 5.4164C16.4119 5.97965 16.5246 6.76819 17.4257 6.76819C18.3269 6.76819 19.1718 6.26127 19.2281 5.30376Z" fill="#075056"/>
  <path fill-rule="evenodd" clip-rule="evenodd" d="M24.0157 8.00732C24.0608 7.01601 23.2459 6.76819 22.8329 6.76819C22.0443 6.71186 21.3121 6.99348 21.2558 8.00732C21.1995 9.02116 22.2696 9.19013 22.4949 9.19013C22.5031 9.19013 22.5126 9.19021 22.5234 9.19029C22.8086 9.19252 23.9614 9.2015 24.0157 8.00732Z" fill="#075056"/>
  <path fill-rule="evenodd" clip-rule="evenodd" d="M24.8938 22.0498C24.9027 22.1502 24.9116 22.2511 24.9205 22.3532Z" fill="#075056"/>
  <path fill-rule="evenodd" clip-rule="evenodd" d="M0.805913 27.9282C0.546026 28.9722 0.273364 30.0676 0.0214713 31.4585C-0.842169 36.2273 24.5224 38.884 27.8815 30.9423C28.1596 29.5167 27.7811 28.4331 27.3977 27.3355C27.16 26.6551 26.9204 25.9694 26.8342 25.1934C26.7516 24.4495 26.6444 23.8796 26.5415 23.3317C26.2936 22.0131 26.0697 20.8221 26.2687 17.6388C26.3629 16.1319 26.6019 14.4864 26.8342 12.8877C26.9438 12.1331 27.0742 11.4776 27.1936 10.8778C27.5773 8.94881 27.8468 7.59421 26.9446 5.36008C26.4088 4.03344 25.4087 3.57316 24.2597 3.0444C23.7782 2.82281 23.2706 2.5892 22.7601 2.27476L22.6743 2.22191C21.9847 1.79702 21.5708 1.54199 20.819 1.17284C20.5034 1.01784 20.2275 0.850709 19.9665 0.692551C19.2952 0.285734 18.7218 -0.0617184 17.82 0.00926267C17.3438 0.0467449 17.0243 0.215677 16.684 0.395669C16.4443 0.52242 16.1942 0.654657 15.8717 0.750335C14.9168 1.03363 14.3635 1.17244 13.3704 1.2484C12.5533 1.31091 11.8786 1.04705 11.2307 0.793666C10.4193 0.476349 9.64996 0.175462 8.69548 0.552574C7.9316 0.854378 7.55446 1.36167 7.15162 1.90353C6.86508 2.28896 6.56553 2.69188 6.10455 3.05078C5.44402 3.56505 4.80555 3.82737 4.18448 4.08255C3.43116 4.39206 2.70342 4.69106 1.99288 5.4164C-0.27379 7.73028 0.523576 10.8182 1.27855 13.742C1.64059 15.1441 1.99288 16.5084 1.99288 17.7315C1.99289 23.1598 1.43707 25.3926 0.805913 27.9282ZM3.31067 21.2849C3.35698 18.9388 3.39431 17.0472 2.7251 14.203C1.88023 9.97867 1.76758 9.02682 2.44347 7.36781C2.87932 6.29802 3.70632 5.94585 4.60576 5.56285C5.10114 5.3519 5.61849 5.1316 6.10455 4.7769C6.69137 4.34867 7.19321 3.775 7.65902 3.2425C8.33087 2.47448 8.92779 1.79211 9.59667 1.75532C10.7293 1.69303 11.7053 2.06348 12.6035 2.40438C13.492 2.74158 14.0108 2.85752 15.0038 2.74922C15.8551 2.65638 16.2794 2.3176 16.6721 2.00406C17.0233 1.72366 17.3493 1.46344 17.9327 1.41738C19.3551 1.30508 20.0374 1.93453 20.8104 2.64764C21.2006 3.00756 21.6138 3.3888 22.157 3.70674C22.6057 3.9694 23.0517 4.13766 23.4735 4.29681C24.3128 4.61348 25.0565 4.89409 25.5365 5.81067C26.5486 7.7436 26.2218 9.42455 25.5746 12.7526C25.5145 13.0617 25.4516 13.385 25.3868 13.7241C25.2547 14.4149 25.1145 15.1711 24.9732 16.0054C24.5701 18.3853 24.718 20.0598 24.8938 22.0498C24.9648 22.8527 25.0402 23.7066 25.0859 24.6793C25.2498 25.6678 25.534 26.5072 25.8047 27.2436C22.7668 27.6874 18.1097 29.4205 23.7841 32.8022C19.1691 34.9388 9.82579 35.1371 5.00745 33.475C10.1476 30.4963 5.6276 28.4568 2.7251 27.8094C2.83471 27.4537 2.94082 27.0679 3.03088 26.6425C3.19078 25.8871 3.30005 25.0066 3.28834 23.9471C3.27749 22.966 3.29462 22.0982 3.31067 21.2849Z" fill="#075056"/>
  <path fill-rule="evenodd" clip-rule="evenodd" d="M16.125 19.7264C18.7832 19.8981 21.2773 20.0592 21.1177 17.146C21.0654 16.1926 20.8591 15.3327 20.5259 14.5729C19.4219 12.0557 16.9248 10.6366 14.0208 10.5561C9.35941 10.4268 5.40319 14.5551 6.8113 20.0749C7.11496 21.2652 8.85656 20.7788 10.6746 20.2654C10.6823 20.2633 10.6899 20.2611 10.6975 20.259C11.4291 20.0524 12.1721 19.8426 12.838 19.7369C13.8359 19.5786 14.9953 19.6535 16.125 19.7264ZM9.68385 18.3851C9.36017 17.6246 9.59373 16.9207 10.585 16.4701C11.8242 15.9069 12.3874 16.9207 12.3311 17.3713C12.2748 17.8219 10.1174 19.4038 9.68385 18.3851Z" fill="#075056"/>
</svg>
