<svg xmlns="http://www.w3.org/2000/svg" width="28" height="36" viewBox="0 0 28 36" fill="none">
  <path fill-rule="evenodd" clip-rule="evenodd" d="M5.65404 9.97867C4.79791 9.93361 4.35858 9.13381 4.24593 8.57057C4.13328 8.00732 5.09079 7.04981 5.76669 7.04981C6.44258 7.04981 6.7242 7.66938 6.7242 8.28894C6.7242 8.90851 6.7242 10.035 5.65404 9.97867Z" fill="#075056"/>
  <path fill-rule="evenodd" clip-rule="evenodd" d="M10.7232 4.62786C9.59674 4.67292 8.79947 5.15105 8.92085 6.03597C9.02128 6.76819 9.58548 7.16246 10.4416 7.16246C11.5118 7.16246 12.1313 6.37392 12.1313 6.03597C12.1313 5.69803 12.1313 4.57154 10.7232 4.62786Z" fill="#075056"/>
  <path fill-rule="evenodd" clip-rule="evenodd" d="M19.2282 5.30376C19.2733 4.53774 18.1956 4.19604 17.6511 4.12094C16.7499 4.06462 16.412 4.85316 16.412 5.4164C16.412 5.97965 16.5246 6.76819 17.4258 6.76819C18.327 6.76819 19.1719 6.26127 19.2282 5.30376Z" fill="#075056"/>
  <path fill-rule="evenodd" clip-rule="evenodd" d="M24.0158 8.00732C24.0608 7.01601 23.246 6.76819 22.833 6.76819C22.0444 6.71186 21.3122 6.99348 21.2559 8.00732C21.1996 9.02116 22.2697 9.19013 22.495 9.19013C22.5032 9.19013 22.5127 9.19021 22.5234 9.19029C22.8087 9.19252 23.9615 9.2015 24.0158 8.00732Z" fill="#075056"/>
  <path fill-rule="evenodd" clip-rule="evenodd" d="M24.8939 22.0498C24.9028 22.1502 24.9117 22.2511 24.9206 22.3532L24.8939 22.0498Z" fill="#075056"/>
  <path fill-rule="evenodd" clip-rule="evenodd" d="M0.80599 27.9282C0.546103 28.9722 0.273441 30.0676 0.0215476 31.4585C-0.842093 36.2273 24.5225 38.884 27.8816 30.9423C28.1597 29.5167 27.7812 28.4331 27.3977 27.3355C27.1601 26.6551 26.9205 25.9694 26.8343 25.1934C26.7516 24.4495 26.6445 23.8796 26.5415 23.3317C26.2937 22.0131 26.0698 20.8221 26.2687 17.6388C26.3629 16.1319 26.602 14.4864 26.8343 12.8877C26.9439 12.1331 27.0743 11.4776 27.1936 10.8778C27.5774 8.94881 27.8469 7.59421 26.9446 5.36008C26.4089 4.03344 25.4087 3.57316 24.2598 3.0444C23.7783 2.82281 23.2707 2.5892 22.7602 2.27476L22.6744 2.22191C21.9848 1.79702 21.5709 1.54199 20.8191 1.17284C20.5034 1.01784 20.2276 0.850709 19.9666 0.692551C19.2953 0.285734 18.7219 -0.0617184 17.8201 0.00926267C17.3439 0.0467449 17.0244 0.215677 16.684 0.395669C16.4443 0.52242 16.1943 0.654657 15.8718 0.750335C14.9169 1.03363 14.3636 1.17244 13.3705 1.2484C12.5534 1.3109 11.8787 1.04705 11.2308 0.793666C10.4194 0.476349 9.65004 0.175462 8.69555 0.552574C7.93168 0.854378 7.55454 1.36167 7.1517 1.90353C6.86516 2.28896 6.56561 2.69188 6.10463 3.05078C5.44409 3.56505 4.80563 3.82737 4.18456 4.08255C3.43124 4.39206 2.70349 4.69106 1.99295 5.4164C-0.273714 7.73028 0.523652 10.8182 1.27863 13.742C1.64067 15.1441 1.99296 16.5084 1.99296 17.7315C1.99297 23.1598 1.43715 25.3926 0.80599 27.9282ZM3.31075 21.2849C3.35706 18.9388 3.39439 17.0472 2.72517 14.203C1.88031 9.97867 1.76766 9.02682 2.44355 7.36781C2.87939 6.29802 3.7064 5.94585 4.60583 5.56285C5.10121 5.3519 5.61856 5.1316 6.10463 4.7769C6.69144 4.34867 7.19328 3.775 7.6591 3.2425C8.33095 2.47448 8.92787 1.79211 9.59674 1.75532C10.7294 1.69303 11.7054 2.06348 12.6036 2.40438C13.492 2.74158 14.0108 2.85752 15.0039 2.74922C15.8551 2.65638 16.2795 2.3176 16.6722 2.00406C17.0234 1.72366 17.3493 1.46344 17.9327 1.41738C19.3552 1.30508 20.0375 1.93453 20.8105 2.64764C21.2006 3.00756 21.6139 3.3888 22.1571 3.70674C22.6058 3.9694 23.0518 4.13766 23.4736 4.29681C24.3129 4.61348 25.0566 4.89409 25.5365 5.81067C26.5487 7.7436 26.2218 9.42455 25.5747 12.7526C25.5145 13.0617 25.4517 13.385 25.3869 13.7241C25.2548 14.4149 25.1146 15.1711 24.9733 16.0054C24.5701 18.3853 24.7181 20.0598 24.8939 22.0498C24.9648 22.8527 25.0403 23.7066 25.0859 24.6793C25.2498 25.6678 25.5341 26.5072 25.8048 27.2436C22.7669 27.6874 18.1097 29.4205 23.7842 32.8022C19.1692 34.9388 9.82587 35.1371 5.00752 33.475C10.1477 30.4963 5.62768 28.4568 2.72517 27.8094C2.83478 27.4537 2.9409 27.0679 3.03096 26.6425C3.19086 25.8871 3.30013 25.0066 3.28841 23.9471C3.27757 22.966 3.2947 22.0982 3.31075 21.2849Z" fill="#075056"/>
  <path fill-rule="evenodd" clip-rule="evenodd" d="M16.125 19.7264C18.7833 19.8981 21.2774 20.0592 21.1178 17.146C21.0655 16.1926 20.8592 15.3327 20.526 14.5729C19.422 12.0557 16.9249 10.6366 14.0209 10.5561C9.35948 10.4268 5.40327 14.5551 6.81138 20.0749C7.11504 21.2652 8.85664 20.7788 10.6747 20.2654C10.6823 20.2633 10.69 20.2611 10.6976 20.259C11.4292 20.0524 12.1722 19.8426 12.8381 19.7369C13.836 19.5786 14.9954 19.6535 16.125 19.7264ZM9.68392 18.3851C9.36025 17.6246 9.5938 16.9207 10.5851 16.4701C11.8242 15.9069 12.3875 16.9207 12.3312 17.3713C12.2748 17.8219 10.1174 19.4038 9.68392 18.3851Z" fill="#075056"/>
</svg>
