<svg width="156" height="50" viewBox="0 0 156 50" fill="none" xmlns="http://www.w3.org/2000/svg">
<path fill-rule="evenodd" clip-rule="evenodd" d="M31.9161 27.0569C32.1584 31.4776 26.6624 29.2506 23.0989 29.816C20.6197 30.2094 17.1358 31.9587 16.681 30.1759C15.1815 24.2977 19.3945 19.9014 24.3585 20.0391C28.3846 20.1508 31.6762 22.6783 31.9161 27.0569ZM19.74 28.3764C19.3953 27.5666 19.6441 26.8169 20.6997 26.3371C22.0193 25.7373 22.6191 26.8169 22.5591 27.2968C22.4991 27.7766 20.2017 29.4612 19.74 28.3764Z" fill="#DF3A34"/>
<path fill-rule="evenodd" clip-rule="evenodd" d="M11.1628 28.0658C11.1628 36.2267 10.463 43.822 9.54327 48.9004H11.4027L12.3624 42.3625C18.0726 38.3797 14.8616 35.5846 12.5423 34.6849C12.8422 32.4656 12.9022 28.3869 11.9425 24.3082C11.0428 19.8096 10.9228 18.796 11.6426 17.0293C12.3624 15.2626 14.0839 15.3337 15.5414 14.2702C17.0676 13.1564 18.054 11.1188 19.2602 11.0524C20.4663 10.9861 21.5057 11.3806 22.4622 11.7436C23.4083 12.1027 23.9608 12.2262 25.0183 12.1108C26.7356 11.9236 26.8214 10.7964 28.1373 10.6925C30.4166 10.5126 30.9114 12.1211 32.6359 13.1305C34.0647 13.9668 35.4668 13.9044 36.2348 15.3711C37.6168 18.0102 36.6546 20.2083 35.635 26.2276C35.0324 29.7845 35.395 33.9851 35.7549 35.4647C30.4166 37.8039 34.4353 41.6427 36.1748 41.5227C36.7572 41.4826 37.1745 45.9613 37.3144 48.1206H39.5937C39.0139 46.5611 37.7943 42.9023 37.5543 40.743C37.2544 38.0438 36.7146 32.7655 37.0145 27.967C37.1148 26.3622 37.3694 24.6099 37.6168 22.9073C38.109 19.5191 38.9939 18.0102 37.7343 14.8912C36.9247 12.8864 35.1191 12.7395 33.2782 11.6056C32.4878 11.1188 32.0443 10.8413 31.2111 10.4321C30.0102 9.84247 29.3511 9.08803 28.0174 9.19301C27.1532 9.26103 26.7737 9.73562 25.9426 9.98219C24.9257 10.2839 24.3365 10.4317 23.2789 10.5126C21.319 10.6625 20.1286 9.04932 18.3005 9.77159C16.9084 10.3216 16.7224 11.5125 15.5414 12.432C13.9847 13.6439 12.5433 13.5419 11.1628 14.9512C7.59143 18.5969 11.1628 24.047 11.1628 28.0658Z" fill="#DF3A34"/>
<path fill-rule="evenodd" clip-rule="evenodd" d="M15.0615 19.8096C14.1498 19.7617 13.6819 18.9099 13.562 18.3101C13.442 17.7103 14.4617 16.6906 15.1815 16.6906C15.9012 16.6906 16.2011 17.3504 16.2011 18.0102C16.2011 18.67 16.2011 19.8696 15.0615 19.8096Z" fill="#DF3A34"/>
<path fill-rule="evenodd" clip-rule="evenodd" d="M20.4598 14.1115C19.2602 14.1594 18.4111 14.6686 18.5404 15.611C18.6474 16.3907 19.2482 16.8106 20.1599 16.8106C21.2995 16.8106 21.9593 15.9709 21.9593 15.611C21.9593 15.2511 21.9593 14.0515 20.4598 14.1115Z" fill="#DF3A34"/>
<path fill-rule="evenodd" clip-rule="evenodd" d="M29.5169 14.8312C29.5649 14.0155 28.4173 13.6516 27.8374 13.5716C26.8777 13.5116 26.5179 14.3514 26.5179 14.9512C26.5179 15.551 26.6378 16.3907 27.5975 16.3907C28.5572 16.3907 29.4569 15.8509 29.5169 14.8312Z" fill="#DF3A34"/>
<path fill-rule="evenodd" clip-rule="evenodd" d="M34.6153 17.7103C34.6633 16.6546 33.7955 16.3907 33.3557 16.3907C32.516 16.3307 31.7362 16.6307 31.6762 17.7103C31.6162 18.79 32.7559 18.9699 32.9958 18.9699C33.0045 18.9699 33.0146 18.97 33.0261 18.9701C33.3298 18.9724 34.5575 18.982 34.6153 17.7103Z" fill="#DF3A34"/>
<path fill-rule="evenodd" clip-rule="evenodd" d="M22.3029 35.9879C21.6666 35.8551 20.9429 35.7041 20.8797 35.1048C20.806 34.4067 21.0724 33.8702 21.6594 33.4853C22.3689 33.0201 22.981 34.1087 23.4556 34.9527C23.7225 35.4273 23.9459 35.8245 24.1186 35.8245C24.5985 35.8245 25.5582 34.0851 25.8581 33.4853C26.158 32.8855 27.0577 33.2454 27.1777 33.7852C27.2419 34.0741 26.5844 34.6036 25.9593 35.107C25.4166 35.5441 24.8984 35.9614 24.8984 36.1844C24.8984 36.3749 25.2824 36.4802 25.7395 36.6054C26.434 36.7957 27.297 37.0322 27.2376 37.6839C27.191 38.1961 26.9922 38.519 26.5778 38.8236C25.9681 39.2719 25.3177 38.4898 24.7848 37.849C24.4714 37.4721 24.1986 37.1441 23.9987 37.1441C23.7829 37.1441 23.6313 37.5604 23.4555 38.0431C23.1912 38.7684 22.8723 39.6438 22.1992 39.4834C21.7568 39.3779 21.4795 39.3034 21.2395 38.8236C21.1282 38.601 21.572 38.2622 22.0737 37.8791C22.6536 37.4364 23.311 36.9345 23.2789 36.4843C23.2577 36.1871 22.8078 36.0932 22.3029 35.9879Z" fill="#DF3A34"/>
<path d="M145.616 32.12L145.397 34.6654H139.403V18.0523H138.993L139.267 15.5069H145.616L145.343 18.0523H142.003V23.7998H145.069L144.795 26.3451H142.003V32.12H145.616Z" fill="#DF3A34"/>
<path d="M135.451 34.6654V18.0523H135.04L135.314 15.5069H138.051V34.6654H135.451Z" fill="#DF3A34"/>
<path d="M131.627 15.5069H134.227V34.6654H131.627L128.616 22.9514V34.6654H126.016V18.0523H125.605L125.879 15.5069H128.753L131.791 27.6862L131.627 15.5069Z" fill="#DF3A34"/>
<path d="M115.188 34.6654L113.491 15.5069H116.091L117.104 26.8104L118.254 18.2165H120.033L121.182 26.8104L122.195 15.5069H124.795L123.098 34.6654H120.471L119.157 24.3472L117.816 34.6654H115.188Z" fill="#DF3A34"/>
<path d="M112.682 32.2295C112.682 32.9959 112.445 33.6162 111.971 34.0906C111.496 34.5468 110.876 34.7748 110.109 34.7748H108.139C107.372 34.7748 106.752 34.5468 106.278 34.0906C105.803 33.6162 105.566 32.9959 105.566 32.2295V17.9428C105.566 17.1765 105.803 16.5652 106.278 16.1091C106.752 15.6347 107.372 15.3975 108.139 15.3975H110.109C110.876 15.3975 111.496 15.6347 111.971 16.1091C112.445 16.5652 112.682 17.1765 112.682 17.9428V32.2295ZM108.303 17.9428C108.212 17.9428 108.166 17.9884 108.166 18.0796V32.0927C108.166 32.1839 108.212 32.2295 108.303 32.2295H109.945C110.036 32.2295 110.082 32.1839 110.082 32.0927V18.0796C110.082 17.9884 110.036 17.9428 109.945 17.9428H108.303Z" fill="#DF3A34"/>
<path d="M97.2741 18.0523L97.5478 15.5069H101.872C102.638 15.5069 103.259 15.7441 103.733 16.2185C104.208 16.6747 104.445 17.2859 104.445 18.0523V26.6188C104.445 27.0202 104.363 27.3852 104.199 27.7136C104.034 28.0238 103.815 28.2884 103.542 28.5073L105.293 34.6654H102.666L101.106 29.1642H100.285V34.6654H97.6846V18.0523H97.2741ZM101.708 18.0523H100.285V26.6188H101.708C101.799 26.6188 101.845 26.5732 101.845 26.482V18.1891C101.845 18.0979 101.799 18.0523 101.708 18.0523Z" fill="#DF3A34"/>
<path d="M89.2889 34.857V18.0523H88.8784L89.1521 15.5069H93.4764C94.2428 15.5069 94.8631 15.7441 95.3375 16.2185C95.8119 16.6747 96.0491 17.2859 96.0491 18.0523V23.7998C96.0491 24.0553 96.0126 24.3016 95.9397 24.5388C96.3776 25.0132 96.5965 25.6153 96.5965 26.3451V32.3116C96.5965 33.078 96.3046 33.6983 95.7207 34.1727C95.1551 34.6289 94.4891 34.857 93.7227 34.857H89.2889ZM93.3122 18.0523H91.889V23.7998H93.3122C93.4034 23.7998 93.4491 23.7542 93.4491 23.663V18.1891C93.4491 18.0979 93.4034 18.0523 93.3122 18.0523ZM93.8596 26.3451H91.889V32.3116H93.8596C93.9508 32.3116 93.9964 32.266 93.9964 32.1748V26.482C93.9964 26.3908 93.9508 26.3451 93.8596 26.3451Z" fill="#DF3A34"/>
<path d="M76.1058 18.0523L76.3795 15.5069H80.7038C81.4701 15.5069 82.0905 15.7441 82.5649 16.2185C83.0393 16.6747 83.2765 17.2859 83.2765 18.0523V26.6188C83.2765 27.3852 82.9845 28.0055 82.4007 28.4799C81.835 28.9361 81.1691 29.1642 80.4027 29.1642H79.1164V34.6654H76.5163V18.0523H76.1058ZM80.5396 18.0523H79.1164V26.6188H80.5396C80.6308 26.6188 80.6764 26.5732 80.6764 26.482V18.1891C80.6764 18.0979 80.6308 18.0523 80.5396 18.0523Z" fill="#DF3A34"/>
<path d="M66.8911 34.6654L69.4638 25.0862L66.8911 15.5069H69.628L71.0786 22.1577L72.5565 15.5069H75.2934L72.6934 25.0862L75.2934 34.6654H72.5565L71.0786 28.0147L69.628 34.6654H66.8911Z" fill="#DF3A34"/>
<path d="M59.1604 18.0523L59.4341 15.5069H63.7584C64.5247 15.5069 65.1451 15.7441 65.6195 16.2185C66.0939 16.6747 66.3311 17.2859 66.3311 18.0523V26.6188C66.3311 27.3852 66.0392 28.0055 65.4553 28.4799C64.8897 28.9361 64.2237 29.1642 63.4573 29.1642H62.171V34.6654H59.5709V18.0523H59.1604ZM63.5942 18.0523H62.171V26.6188H63.5942C63.6854 26.6188 63.731 26.5732 63.731 26.482V18.1891C63.731 18.0979 63.6854 18.0523 63.5942 18.0523Z" fill="#DF3A34"/>
<path d="M153.952 2.70117C153.952 2.20405 153.549 1.80095 153.052 1.80078H49.6963V47.8965H153.052C153.549 47.8963 153.952 47.4931 153.952 46.9961V2.70117ZM1.80078 46.9961C1.80091 47.4932 2.20403 47.8965 2.70117 47.8965H47.8965V1.80078H2.70117C2.20395 1.80078 1.80078 2.20395 1.80078 2.70117V46.9961ZM155.752 46.9961C155.752 48.4875 154.543 49.6961 153.052 49.6963H2.70117C1.20958 49.6963 0.000129869 48.4877 0 46.9961V2.70117C0 1.2095 1.2095 0 2.70117 0H153.052C154.543 0.000173156 155.752 1.20961 155.752 2.70117V46.9961Z" fill="#DF3A34"/>
<path d="M129.327 8.22185V9.30221H128.741V7.02985L128.673 6.62291C128.781 6.6109 128.894 6.5995 129.013 6.5887C129.133 6.57669 129.247 6.57069 129.355 6.57069C129.519 6.57069 129.669 6.5881 129.807 6.62291C129.947 6.65652 130.067 6.70694 130.167 6.77416C130.27 6.84018 130.349 6.92241 130.405 7.02084C130.463 7.11807 130.492 7.22971 130.492 7.35575C130.492 7.46259 130.474 7.56042 130.439 7.64925C130.406 7.73688 130.358 7.81551 130.295 7.88513C130.234 7.95476 130.16 8.01418 130.072 8.06339C129.984 8.11261 129.887 8.15102 129.779 8.17863L129.944 8.22185L130.679 9.30221H130.022L129.327 8.22185ZM129.327 7.28373V7.86172H129.391C129.473 7.86172 129.545 7.84912 129.608 7.82391C129.671 7.7975 129.725 7.76269 129.768 7.71948C129.811 7.67506 129.843 7.62404 129.865 7.56643C129.888 7.50761 129.899 7.44638 129.899 7.38276C129.899 7.29874 129.884 7.22971 129.852 7.17569C129.821 7.12168 129.781 7.07966 129.732 7.04965C129.684 7.01844 129.63 6.99743 129.57 6.98663C129.511 6.97463 129.454 6.96862 129.399 6.96862C129.379 6.96862 129.361 6.96922 129.345 6.97043C129.328 6.97043 129.312 6.97103 129.298 6.97223L129.327 7.28373Z" fill="#DF3A34"/>
<path d="M127.827 8.89167L127.778 9.30221H126.05L126.081 8.88627V7.02804L126.017 6.6013H127.76V7.01184H126.686L126.713 7.26032V7.65285H127.642V8.03638H126.713V8.65399L126.698 8.89167H127.827Z" fill="#DF3A34"/>
<path d="M124.633 9.30221L123.762 7.59163H123.744L123.855 8.13362V9.30221H123.274V7.02804L123.214 6.6013L123.801 6.56529L124.662 8.22184H124.68L124.574 7.76809V6.6013L125.154 6.56529V9.30221H124.633Z" fill="#DF3A34"/>
<path d="M122.556 8.90427C122.502 8.96429 122.441 9.02071 122.374 9.07353C122.307 9.12515 122.232 9.17016 122.151 9.20858C122.069 9.24699 121.98 9.2776 121.884 9.30041C121.789 9.32201 121.687 9.33282 121.578 9.33282C121.392 9.33282 121.225 9.2956 121.077 9.22118C120.93 9.14555 120.804 9.04352 120.701 8.91508C120.598 8.78664 120.519 8.63658 120.463 8.46493C120.409 8.29327 120.382 8.11081 120.382 7.91754C120.382 7.7963 120.393 7.67926 120.415 7.56643C120.436 7.45239 120.469 7.34555 120.514 7.24592C120.558 7.14508 120.614 7.05385 120.681 6.97223C120.75 6.8894 120.83 6.81857 120.921 6.75975C121.012 6.69973 121.115 6.65352 121.23 6.62111C121.347 6.5875 121.476 6.57069 121.618 6.57069C121.774 6.57069 121.922 6.5971 122.062 6.64992C122.203 6.70274 122.326 6.78016 122.431 6.8822L122.165 7.1955C122.125 7.16909 122.084 7.14388 122.041 7.11988C121.998 7.09587 121.953 7.07486 121.908 7.05685C121.863 7.03885 121.819 7.02444 121.774 7.01364C121.73 7.00284 121.687 6.99743 121.645 6.99743C121.531 6.99743 121.433 7.02204 121.353 7.07126C121.274 7.11928 121.209 7.1853 121.158 7.26933C121.108 7.35215 121.071 7.44939 121.049 7.56102C121.026 7.67146 121.014 7.7885 121.014 7.91214C121.014 7.98537 121.019 8.06099 121.029 8.13902C121.04 8.21584 121.055 8.29147 121.076 8.36589C121.097 8.43912 121.124 8.50814 121.157 8.57296C121.19 8.63778 121.229 8.6948 121.274 8.74402C121.319 8.79324 121.371 8.83225 121.429 8.86106C121.486 8.88987 121.551 8.90427 121.623 8.90427C121.653 8.90427 121.684 8.90067 121.715 8.89347C121.747 8.88627 121.778 8.87727 121.807 8.86646C121.837 8.85446 121.864 8.84125 121.89 8.82685C121.916 8.81244 121.939 8.79744 121.958 8.78183V8.19304L121.429 8.15882V7.7897H122.556V8.90427Z" fill="#DF3A34"/>
<path d="M117.894 6.6013H119.475V7.01184H118.984V8.89167H119.526L119.463 9.30221H117.882V8.89167H118.382V7.01184H117.831L117.894 6.6013Z" fill="#DF3A34"/>
<path d="M116.579 7.1811C116.523 7.14869 116.473 7.12168 116.427 7.10007C116.383 7.07726 116.341 7.05925 116.303 7.04605C116.265 7.03285 116.228 7.02324 116.193 7.01724C116.16 7.01124 116.126 7.00824 116.092 7.00824C116.048 7.00824 116.004 7.01244 115.959 7.02084C115.916 7.02924 115.877 7.04365 115.842 7.06406C115.807 7.08446 115.779 7.11207 115.757 7.14688C115.736 7.1817 115.725 7.22491 115.725 7.27653C115.725 7.32574 115.737 7.36836 115.761 7.40437C115.786 7.43918 115.819 7.47039 115.858 7.498C115.899 7.52561 115.945 7.55082 115.995 7.57363C116.047 7.59644 116.099 7.61984 116.152 7.64385C116.242 7.68587 116.333 7.73148 116.425 7.7807C116.518 7.82871 116.601 7.88573 116.676 7.95175C116.75 8.01778 116.811 8.0952 116.858 8.18403C116.906 8.27166 116.93 8.3755 116.93 8.49554C116.93 8.63478 116.901 8.75662 116.843 8.86106C116.786 8.96549 116.709 9.05252 116.613 9.12215C116.518 9.19177 116.408 9.24459 116.283 9.2806C116.16 9.31541 116.032 9.33282 115.9 9.33282C115.748 9.33282 115.609 9.31181 115.48 9.2698C115.353 9.22658 115.225 9.16476 115.097 9.08433L115.345 8.6756C115.378 8.6972 115.416 8.72001 115.46 8.74402C115.505 8.76803 115.552 8.79024 115.601 8.81064C115.651 8.82985 115.702 8.84605 115.752 8.85926C115.802 8.87126 115.85 8.87726 115.896 8.87726C115.949 8.87726 116.001 8.87186 116.053 8.86106C116.104 8.84906 116.15 8.82985 116.19 8.80344C116.23 8.77583 116.263 8.73982 116.287 8.6954C116.312 8.65099 116.325 8.59517 116.325 8.52795C116.325 8.46313 116.31 8.40731 116.28 8.36049C116.251 8.31368 116.212 8.27286 116.164 8.23805C116.118 8.20204 116.064 8.16963 116.004 8.14082C115.944 8.11201 115.883 8.0832 115.822 8.05439C115.736 8.01358 115.652 7.97036 115.57 7.92475C115.489 7.87913 115.415 7.82751 115.35 7.76989C115.287 7.71227 115.235 7.64745 115.196 7.57543C115.157 7.5034 115.138 7.42058 115.138 7.32694C115.138 7.2057 115.164 7.09827 115.215 7.00464C115.267 6.9098 115.335 6.83058 115.421 6.76696C115.506 6.70214 115.603 6.65352 115.712 6.62111C115.822 6.5875 115.934 6.57069 116.049 6.57069C116.191 6.57069 116.326 6.5929 116.454 6.63731C116.583 6.68053 116.714 6.74715 116.849 6.83718L116.579 7.1811Z" fill="#DF3A34"/>
<path d="M114.135 8.89167L114.087 9.30221H112.358L112.389 8.88627V7.02804L112.326 6.6013H114.069V7.01184H112.994L113.021 7.26032V7.65285H113.95V8.03638H113.021V8.65399L113.007 8.89167H114.135Z" fill="#DF3A34"/>
<path d="M109.469 6.6013C109.528 6.5953 109.59 6.5905 109.656 6.5869C109.722 6.5833 109.787 6.58029 109.85 6.57789C109.915 6.57549 109.976 6.57369 110.032 6.57249C110.09 6.57129 110.139 6.57069 110.178 6.57069C110.38 6.57069 110.566 6.5953 110.736 6.64452C110.908 6.69253 111.056 6.76816 111.181 6.87139C111.306 6.97463 111.404 7.10727 111.475 7.26933C111.545 7.43018 111.581 7.62344 111.581 7.84912C111.581 8.02318 111.563 8.18043 111.529 8.32088C111.494 8.46013 111.445 8.58377 111.381 8.6918C111.319 8.79864 111.243 8.89107 111.156 8.9691C111.068 9.04592 110.972 9.10894 110.866 9.15816C110.762 9.20738 110.65 9.24399 110.531 9.268C110.412 9.2908 110.29 9.30221 110.164 9.30221H109.53V7.02985L109.469 6.6013ZM110.162 7.28373V8.85206C110.288 8.85206 110.395 8.83705 110.482 8.80704C110.57 8.77583 110.643 8.73502 110.702 8.6846C110.761 8.63298 110.807 8.57416 110.839 8.50814C110.871 8.44212 110.896 8.3743 110.913 8.30467C110.93 8.23385 110.94 8.16363 110.943 8.094C110.947 8.02438 110.949 7.96016 110.949 7.90134C110.949 7.76689 110.938 7.64385 110.916 7.53221C110.896 7.42058 110.857 7.32454 110.799 7.24412C110.742 7.16369 110.662 7.10187 110.56 7.05865C110.458 7.01424 110.326 6.99203 110.164 6.99203C110.16 6.99203 110.156 6.99263 110.151 6.99383C110.148 6.99383 110.143 6.99383 110.139 6.99383H110.124L110.162 7.28373Z" fill="#DF3A34"/>
<path d="M104.901 7.24412L105.094 7.91034L105.198 7.24412L105.526 6.6013H106.129L105.35 8.13181V9.30221H104.718V8.13181L103.945 6.6013L104.556 6.56529L104.901 7.24412Z" fill="#DF3A34"/>
<path d="M101.943 8.22185V9.30221H101.358V7.02985L101.29 6.62291C101.398 6.6109 101.511 6.5995 101.63 6.5887C101.75 6.57669 101.864 6.57069 101.972 6.57069C102.135 6.57069 102.286 6.5881 102.424 6.62291C102.563 6.65652 102.683 6.70694 102.784 6.77416C102.886 6.84018 102.966 6.92241 103.022 7.02084C103.08 7.11807 103.108 7.22971 103.108 7.35575C103.108 7.46259 103.091 7.56042 103.056 7.64925C103.023 7.73688 102.975 7.81551 102.912 7.88513C102.851 7.95476 102.776 8.01418 102.689 8.06339C102.601 8.11261 102.503 8.15102 102.395 8.17863L102.561 8.22185L103.296 9.30221H102.638L101.943 8.22185ZM101.943 7.28373V7.86172H102.008C102.09 7.86172 102.162 7.84912 102.224 7.82391C102.288 7.7975 102.341 7.76269 102.385 7.71948C102.428 7.67506 102.46 7.62404 102.482 7.56643C102.505 7.50761 102.516 7.44638 102.516 7.38276C102.516 7.29874 102.5 7.22971 102.469 7.17569C102.438 7.12168 102.398 7.07966 102.349 7.04965C102.3 7.01844 102.246 6.99743 102.186 6.98663C102.128 6.97463 102.071 6.96862 102.015 6.96862C101.996 6.96862 101.978 6.96922 101.961 6.97043C101.945 6.97043 101.929 6.97103 101.915 6.97223L101.943 7.28373Z" fill="#DF3A34"/>
<path d="M98.4866 9.30221L99.1258 6.99023L99.1906 6.6013L99.8713 6.56529L100.647 9.30221H100.046L99.8587 8.53335H99.2429L99.061 9.30221H98.4866ZM99.5544 6.9056L99.4841 7.51961L99.3491 8.13902H99.7524L99.6228 7.51961L99.5544 6.9056Z" fill="#DF3A34"/>
<path d="M97.25 9.30221L96.3785 7.59163H96.3605L96.4721 8.13362V9.30221H95.8905V7.02804L95.8311 6.6013L96.4181 6.56529L97.2788 8.22184H97.2968L97.1906 7.76809V6.6013L97.7704 6.56529V9.30221H97.25Z" fill="#DF3A34"/>
<path d="M93.2494 6.6013H94.8304V7.01184H94.3388V8.89167H94.8808L94.8178 9.30221H93.2368V8.89167H93.7374V7.01184H93.1864L93.2494 6.6013Z" fill="#DF3A34"/>
<path d="M91.0153 8.89167H92.2577L92.2091 9.30221H90.3616L90.4031 8.88447V7.02804L90.3418 6.6013L91.0297 6.56529V8.65399L91.0153 8.89167Z" fill="#DF3A34"/>
<path d="M88.3328 9.30221H87.735V7.02985C87.7302 7.00224 87.7248 6.97103 87.7188 6.93621C87.7128 6.9014 87.7068 6.86599 87.7008 6.82998C87.6948 6.79397 87.6887 6.75855 87.6827 6.72374C87.6767 6.68893 87.6713 6.65772 87.6665 6.63011C87.7206 6.62171 87.7794 6.61391 87.843 6.6067C87.9066 6.5995 87.9702 6.5935 88.0339 6.5887C88.0987 6.58269 88.1611 6.57849 88.2211 6.57609C88.2812 6.57249 88.334 6.57069 88.3796 6.57069C88.5969 6.57069 88.7841 6.5905 88.9414 6.63011C89.0998 6.66852 89.2301 6.72254 89.3321 6.79217C89.4353 6.86179 89.5116 6.94462 89.5608 7.04065C89.61 7.13668 89.6346 7.24172 89.6346 7.35575C89.6346 7.51301 89.607 7.64745 89.5518 7.75909C89.4978 7.87073 89.4161 7.96256 89.3069 8.03458C89.1989 8.10541 89.0632 8.15822 88.9 8.19304C88.7379 8.22785 88.5488 8.24765 88.3328 8.25246V9.30221ZM88.3328 7.28373V7.83832C88.4576 7.83351 88.5644 7.82211 88.6533 7.8041C88.7421 7.7849 88.8147 7.75729 88.8711 7.72128C88.9276 7.68406 88.969 7.63605 88.9954 7.57723C89.0218 7.51841 89.035 7.44639 89.035 7.36116C89.035 7.29633 89.017 7.23992 88.981 7.1919C88.945 7.14268 88.8988 7.10247 88.8423 7.07126C88.7871 7.03885 88.7253 7.01484 88.6569 6.99924C88.5885 6.98363 88.5218 6.97583 88.457 6.97583H88.4138C88.4018 6.97583 88.3904 6.97643 88.3796 6.97763C88.3688 6.97763 88.3574 6.97823 88.3454 6.97943C88.3334 6.97943 88.3196 6.98003 88.304 6.98123L88.3328 7.28373Z" fill="#DF3A34"/>
<path d="M85.0345 6.6013H86.6154V7.01184H86.1238V8.89167H86.6658L86.6028 9.30221H85.0219V8.89167H85.5224V7.01184H84.9714L85.0345 6.6013Z" fill="#DF3A34"/>
<path d="M84.1634 9.06273C84.0409 9.15996 83.9125 9.22958 83.778 9.2716C83.6448 9.31241 83.4995 9.33282 83.3423 9.33282C83.1562 9.33282 82.9894 9.2956 82.8417 9.22118C82.6941 9.14555 82.5686 9.04352 82.4654 8.91508C82.3622 8.78664 82.2829 8.63658 82.2277 8.46493C82.1737 8.29327 82.1467 8.11081 82.1467 7.91754C82.1467 7.7963 82.1569 7.67926 82.1773 7.56643C82.1977 7.45239 82.2289 7.34555 82.2709 7.24592C82.3129 7.14508 82.3664 7.05385 82.4312 6.97223C82.496 6.8894 82.5728 6.81857 82.6617 6.75975C82.7517 6.69973 82.8537 6.65352 82.9678 6.62111C83.0818 6.5875 83.209 6.57069 83.3495 6.57069C83.5055 6.57069 83.6538 6.5971 83.7942 6.64992C83.9347 6.70274 84.0577 6.78016 84.1634 6.8822L83.8969 7.21351C83.8573 7.1871 83.8152 7.16189 83.7708 7.13788C83.7276 7.11387 83.6838 7.09287 83.6394 7.07486C83.595 7.05685 83.5505 7.04245 83.5061 7.03165C83.4617 7.02084 83.4191 7.01544 83.3783 7.01544C83.2643 7.01544 83.1688 7.03885 83.092 7.08566C83.0152 7.13248 82.9534 7.1967 82.9065 7.27833C82.8597 7.35876 82.8261 7.45359 82.8057 7.56282C82.7865 7.67206 82.7769 7.7885 82.7769 7.91214C82.7769 7.98537 82.7817 8.06039 82.7913 8.13722C82.8021 8.21284 82.8177 8.28667 82.8381 8.35869C82.8597 8.43072 82.8867 8.49854 82.9191 8.56216C82.9528 8.62578 82.9918 8.6816 83.0362 8.72962C83.0818 8.77643 83.1334 8.81364 83.191 8.84125C83.2487 8.86886 83.3135 8.88267 83.3855 8.88267C83.4263 8.88267 83.4665 8.87967 83.5061 8.87366C83.5457 8.86646 83.5872 8.85566 83.6304 8.84125C83.6748 8.82565 83.7228 8.80584 83.7744 8.78183C83.826 8.75663 83.8843 8.72601 83.9491 8.69L84.1634 9.06273Z" fill="#DF3A34"/>
<path d="M80.9803 7.1811C80.9251 7.14869 80.8746 7.12168 80.829 7.10007C80.7846 7.07726 80.7432 7.05925 80.7048 7.04605C80.6664 7.03285 80.6298 7.02324 80.595 7.01724C80.5613 7.01124 80.5277 7.00824 80.4941 7.00824C80.4497 7.00824 80.4053 7.01244 80.3609 7.02084C80.3177 7.02924 80.2786 7.04365 80.2438 7.06406C80.209 7.08446 80.1808 7.11207 80.1592 7.14688C80.1376 7.1817 80.1268 7.22491 80.1268 7.27653C80.1268 7.32574 80.1388 7.36836 80.1628 7.40437C80.188 7.43918 80.2204 7.47039 80.26 7.498C80.3009 7.52561 80.3465 7.55082 80.3969 7.57363C80.4485 7.59644 80.5007 7.61984 80.5535 7.64385C80.6436 7.68587 80.7348 7.73148 80.8272 7.7807C80.9197 7.82871 81.0031 7.88573 81.0775 7.95175C81.1519 8.01778 81.2126 8.0952 81.2594 8.18403C81.3074 8.27166 81.3314 8.3755 81.3314 8.49554C81.3314 8.63478 81.3026 8.75662 81.245 8.86106C81.1873 8.96549 81.1105 9.05252 81.0145 9.12215C80.9197 9.19177 80.8098 9.24459 80.685 9.2806C80.5613 9.31541 80.4335 9.33282 80.3015 9.33282C80.1502 9.33282 80.0104 9.31181 79.8819 9.2698C79.7547 9.22658 79.6268 9.16476 79.4984 9.08433L79.7469 8.6756C79.7793 8.6972 79.8177 8.72001 79.8621 8.74402C79.9065 8.76803 79.9533 8.79024 80.0025 8.81064C80.053 8.82985 80.1034 8.84605 80.1538 8.85926C80.2042 8.87126 80.2522 8.87726 80.2979 8.87726C80.3507 8.87726 80.4029 8.87186 80.4545 8.86106C80.5061 8.84906 80.5517 8.82985 80.5914 8.80344C80.6322 8.77583 80.6646 8.73982 80.6886 8.6954C80.7138 8.65099 80.7264 8.59517 80.7264 8.52795C80.7264 8.46313 80.7114 8.40731 80.6814 8.36049C80.6526 8.31368 80.6142 8.27286 80.5661 8.23805C80.5193 8.20204 80.4659 8.16963 80.4059 8.14082C80.3459 8.11201 80.2853 8.0832 80.224 8.05439C80.1376 8.01358 80.0536 7.97036 79.9719 7.92475C79.8903 7.87913 79.8171 7.82751 79.7523 7.76989C79.6886 7.71227 79.637 7.64745 79.5974 7.57543C79.559 7.5034 79.5398 7.42058 79.5398 7.32694C79.5398 7.2057 79.5656 7.09827 79.6172 7.00464C79.6688 6.9098 79.7373 6.83058 79.8225 6.76696C79.9077 6.70214 80.005 6.65352 80.1142 6.62111C80.2234 6.5875 80.3357 6.57069 80.4509 6.57069C80.5926 6.57069 80.7276 6.5929 80.856 6.63731C80.9845 6.68053 81.1159 6.74715 81.2504 6.83718L80.9803 7.1811Z" fill="#DF3A34"/>
<path d="M76.8195 6.6013H78.4004V7.01184H77.9088V8.89167H78.4508L78.3878 9.30221H76.8069V8.89167H77.3074V7.01184H76.7565L76.8195 6.6013Z" fill="#DF3A34"/>
<path d="M73.8705 6.6013C73.9293 6.5953 73.9917 6.5905 74.0577 6.5869C74.1238 6.5833 74.1886 6.58029 74.2522 6.57789C74.317 6.57549 74.3777 6.57369 74.4341 6.57249C74.4917 6.57129 74.5403 6.57069 74.5799 6.57069C74.7816 6.57069 74.9677 6.5953 75.1381 6.64452C75.3098 6.69253 75.458 6.76816 75.5829 6.87139C75.7077 6.97463 75.8055 7.10727 75.8764 7.26933C75.9472 7.43018 75.9826 7.62344 75.9826 7.84912C75.9826 8.02318 75.9652 8.18043 75.9304 8.32088C75.8956 8.46013 75.8463 8.58377 75.7827 8.6918C75.7203 8.79864 75.6453 8.89107 75.5576 8.9691C75.47 9.04592 75.3734 9.10894 75.2678 9.15816C75.1633 9.20738 75.0517 9.24399 74.9328 9.268C74.814 9.2908 74.6916 9.30221 74.5655 9.30221H73.9317V7.02985L73.8705 6.6013ZM74.5637 7.28373V8.85206C74.6898 8.85206 74.7966 8.83705 74.8842 8.80704C74.9719 8.77583 75.0451 8.73502 75.1039 8.6846C75.1627 8.63298 75.2083 8.57416 75.2407 8.50814C75.2732 8.44212 75.2978 8.3743 75.3146 8.30467C75.3314 8.23385 75.3416 8.16363 75.3452 8.094C75.3488 8.02438 75.3506 7.96016 75.3506 7.90134C75.3506 7.76689 75.3398 7.64385 75.3182 7.53221C75.2978 7.42058 75.2587 7.32454 75.2011 7.24412C75.1435 7.16369 75.0637 7.10187 74.9616 7.05865C74.8596 7.01424 74.7276 6.99203 74.5655 6.99203C74.5619 6.99203 74.5577 6.99263 74.5529 6.99383C74.5493 6.99383 74.5451 6.99383 74.5403 6.99383H74.5259L74.5637 7.28373Z" fill="#DF3A34"/>
<path d="M71.3428 6.6013H72.9238V7.01184H72.4322V8.89167H72.9742L72.9112 9.30221H71.3302V8.89167H71.8308V7.01184H71.2798L71.3428 6.6013Z" fill="#DF3A34"/>
<path d="M69.1195 9.30221V7.01184H68.3938V6.6013H70.4357V7.01184H69.7191V9.30221H69.1195Z" fill="#DF3A34"/>
<path d="M66.3703 8.89167H67.6128L67.5641 9.30221H65.7167L65.7581 8.88447V7.02804L65.6969 6.6013L66.3848 6.56529V8.65399L66.3703 8.89167Z" fill="#DF3A34"/>
<path d="M64.887 6.6013V8.34068C64.887 8.50754 64.8648 8.65339 64.8204 8.77823C64.776 8.90187 64.7118 9.00511 64.6278 9.08794C64.5437 9.16956 64.4411 9.23078 64.3199 9.2716C64.1998 9.31241 64.0642 9.33282 63.9129 9.33282C63.7497 9.33282 63.6116 9.30701 63.4988 9.25539C63.3859 9.20377 63.2941 9.13055 63.2233 9.03572C63.1537 8.94089 63.1032 8.82745 63.072 8.6954C63.0408 8.56216 63.0252 8.41511 63.0252 8.25426V7.02804L62.964 6.6013L63.623 6.56529V8.28667C63.623 8.3839 63.6266 8.47093 63.6338 8.54775C63.6422 8.62458 63.6584 8.6894 63.6824 8.74222C63.7076 8.79504 63.7425 8.83525 63.7869 8.86286C63.8325 8.89047 63.8931 8.90427 63.9687 8.90427C64.0288 8.90427 64.0792 8.89347 64.12 8.87186C64.1608 8.84906 64.1938 8.81544 64.219 8.77103C64.2442 8.72661 64.2622 8.6714 64.273 8.60537C64.2838 8.53935 64.2892 8.46193 64.2892 8.3731V6.6013H64.887Z" fill="#DF3A34"/>
<path d="M61.6499 9.30221V8.49374L61.8426 7.14148H61.8246L61.5779 8.04178L61.4195 8.44692H61.0395L60.8865 8.04178L60.6362 7.14148H60.6182L60.8199 8.49374V9.30221H60.2401V7.02804L60.1843 6.6013L60.7965 6.56529L61.1404 7.35936L61.2322 7.86172L61.3204 7.35395L61.6265 6.6013L62.2315 6.56529V9.30221H61.6499Z" fill="#DF3A34"/>
<path d="M111.687 43.836C111.633 43.896 111.572 43.9524 111.505 44.0052C111.437 44.0569 111.363 44.1019 111.281 44.1403C111.2 44.1787 111.111 44.2093 111.015 44.2321C110.92 44.2537 110.818 44.2645 110.709 44.2645C110.523 44.2645 110.356 44.2273 110.208 44.1529C110.061 44.0773 109.935 43.9752 109.832 43.8468C109.729 43.7184 109.649 43.5683 109.594 43.3966C109.54 43.225 109.513 43.0425 109.513 42.8493C109.513 42.728 109.524 42.611 109.546 42.4981C109.567 42.3841 109.6 42.2773 109.645 42.1776C109.689 42.0768 109.745 41.9856 109.812 41.9039C109.881 41.8211 109.96 41.7503 110.052 41.6915C110.143 41.6315 110.246 41.5852 110.361 41.5528C110.478 41.5192 110.607 41.5024 110.748 41.5024C110.904 41.5024 111.053 41.5288 111.193 41.5816C111.334 41.6345 111.457 41.7119 111.562 41.8139L111.296 42.1272C111.256 42.1008 111.215 42.0756 111.172 42.0516C111.128 42.0276 111.084 42.0066 111.038 41.9886C110.994 41.9706 110.95 41.9562 110.905 41.9454C110.861 41.9346 110.817 41.9292 110.775 41.9292C110.661 41.9292 110.564 41.9538 110.484 42.003C110.405 42.051 110.34 42.117 110.289 42.201C110.239 42.2839 110.202 42.3811 110.179 42.4927C110.157 42.6032 110.145 42.7202 110.145 42.8439C110.145 42.9171 110.15 42.9927 110.16 43.0707C110.17 43.1476 110.186 43.2232 110.206 43.2976C110.228 43.3708 110.255 43.4399 110.287 43.5047C110.321 43.5695 110.36 43.6265 110.405 43.6757C110.45 43.725 110.502 43.764 110.559 43.7928C110.617 43.8216 110.682 43.836 110.754 43.836C110.784 43.836 110.814 43.8324 110.846 43.8252C110.878 43.818 110.909 43.809 110.938 43.7982C110.968 43.7862 110.995 43.773 111.02 43.7586C111.047 43.7442 111.07 43.7292 111.089 43.7136V43.1248L110.559 43.0905V42.7214H111.687V43.836Z" fill="#DF3A34"/>
<path d="M108.784 41.533V43.2724C108.784 43.4393 108.762 43.5851 108.718 43.71C108.673 43.8336 108.609 43.9368 108.525 44.0197C108.441 44.1013 108.338 44.1625 108.217 44.2033C108.097 44.2441 107.962 44.2645 107.81 44.2645C107.647 44.2645 107.509 44.2387 107.396 44.1871C107.283 44.1355 107.191 44.0623 107.121 43.9674C107.051 43.8726 107.001 43.7592 106.969 43.6271C106.938 43.4939 106.923 43.3468 106.923 43.186V41.9598L106.861 41.533L107.52 41.497V43.2184C107.52 43.3156 107.524 43.4026 107.531 43.4795C107.54 43.5563 107.556 43.6211 107.58 43.6739C107.605 43.7268 107.64 43.767 107.684 43.7946C107.73 43.8222 107.79 43.836 107.866 43.836C107.926 43.836 107.977 43.8252 108.017 43.8036C108.058 43.7808 108.091 43.7472 108.116 43.7028C108.142 43.6583 108.16 43.6031 108.17 43.5371C108.181 43.4711 108.187 43.3936 108.187 43.3048V41.533H108.784Z" fill="#DF3A34"/>
<path d="M104.807 42.1992V42.6134H104.859C104.916 42.6134 104.972 42.6056 105.029 42.59C105.086 42.5744 105.138 42.5504 105.184 42.518C105.229 42.4843 105.266 42.4417 105.295 42.3901C105.324 42.3385 105.338 42.2761 105.338 42.2028C105.338 42.1368 105.325 42.0828 105.297 42.0408C105.269 41.9988 105.234 41.9664 105.191 41.9436C105.148 41.9208 105.1 41.9051 105.047 41.8967C104.995 41.8883 104.945 41.8841 104.895 41.8841C104.879 41.8841 104.859 41.8847 104.838 41.8859C104.816 41.8871 104.796 41.8889 104.778 41.8913L104.807 42.1992ZM104.175 44.2339V41.9616L104.118 41.5528C104.169 41.5456 104.226 41.539 104.287 41.533C104.348 41.527 104.409 41.5216 104.469 41.5168C104.53 41.512 104.588 41.5084 104.643 41.506C104.699 41.5036 104.746 41.5024 104.786 41.5024C104.93 41.5024 105.069 41.5126 105.203 41.533C105.338 41.5522 105.457 41.587 105.56 41.6375C105.664 41.6879 105.748 41.7563 105.81 41.8427C105.873 41.928 105.904 42.036 105.904 42.1668C105.904 42.2317 105.894 42.2929 105.875 42.3505C105.857 42.4081 105.831 42.4615 105.798 42.5107C105.765 42.56 105.725 42.6044 105.677 42.644C105.63 42.6836 105.578 42.7178 105.52 42.7466C105.597 42.773 105.669 42.8048 105.736 42.8421C105.805 42.8793 105.864 42.9237 105.915 42.9753C105.965 43.0269 106.005 43.0863 106.033 43.1536C106.062 43.2196 106.077 43.2946 106.077 43.3786C106.077 43.4843 106.062 43.5791 106.032 43.6631C106.002 43.746 105.961 43.8192 105.909 43.8828C105.859 43.9452 105.799 43.9992 105.729 44.0449C105.66 44.0893 105.585 44.1259 105.506 44.1547C105.428 44.1823 105.346 44.2027 105.261 44.2159C105.177 44.2279 105.094 44.2339 105.013 44.2339H104.175ZM104.807 43.8234H104.91C105 43.8234 105.08 43.8168 105.149 43.8036C105.22 43.7892 105.28 43.7652 105.328 43.7316C105.377 43.6979 105.414 43.6541 105.439 43.6001C105.466 43.5461 105.479 43.4783 105.479 43.3966C105.479 43.3198 105.466 43.255 105.441 43.2022C105.416 43.1494 105.381 43.1073 105.337 43.0761C105.292 43.0437 105.239 43.0209 105.178 43.0077C105.117 42.9933 105.05 42.9861 104.978 42.9861H104.807V43.8234Z" fill="#DF3A34"/>
<path d="M98.5707 44.2339L99.21 41.922L99.2748 41.533L99.9554 41.497L100.731 44.2339H100.13L99.9428 43.4651H99.327L99.1451 44.2339H98.5707ZM99.6385 41.8373L99.5683 42.4513L99.4332 43.0707H99.8366L99.7069 42.4513L99.6385 41.8373Z" fill="#DF3A34"/>
<path d="M94.5742 44.2339V42.9951H93.7711V44.2339H93.1463V41.9598L93.0905 41.533L93.7711 41.497V42.5846H94.5742V41.533L95.1972 41.497V44.2339H94.5742Z" fill="#DF3A34"/>
<path d="M91.1102 44.2339V41.9436H90.3846V41.533H92.4265V41.9436H91.7098V44.2339H91.1102Z" fill="#DF3A34"/>
<path d="M87.8569 41.533H89.4378V41.9436H88.9463V43.8234H89.4883L89.4252 44.2339H87.8443V43.8234H88.3449V41.9436H87.7939L87.8569 41.533Z" fill="#DF3A34"/>
<path d="M85.3383 41.497L85.5417 42.5071L85.5561 43.5137H85.5741L85.6516 42.9717L85.7434 42.4333H86.1503L86.253 42.9717L86.3466 43.5137H86.3646L86.361 42.5107L86.5447 41.533H87.0686L86.5861 44.2339H86.1305L86.0207 43.6937L85.9487 43.0635L85.8748 43.6937L85.7632 44.2339H85.313C85.2698 43.9494 85.2272 43.6835 85.1852 43.4363C85.1432 43.189 85.1018 42.9555 85.061 42.7358C85.0202 42.515 84.9799 42.3055 84.9403 42.1074C84.9019 41.9093 84.8641 41.7179 84.8269 41.533L85.3383 41.497Z" fill="#DF3A34"/>
<path d="M80.1209 43.1536V44.2339H79.5357V41.9616L79.4673 41.5546C79.5753 41.5426 79.6888 41.5312 79.8076 41.5204C79.9276 41.5084 80.0417 41.5024 80.1497 41.5024C80.313 41.5024 80.4636 41.5198 80.6017 41.5546C80.7409 41.5882 80.861 41.6387 80.9618 41.7059C81.0638 41.7719 81.143 41.8541 81.1995 41.9526C81.2571 42.0498 81.2859 42.1614 81.2859 42.2875C81.2859 42.3943 81.2685 42.4921 81.2337 42.581C81.2001 42.6686 81.1521 42.7472 81.0896 42.8169C81.0284 42.8865 80.954 42.9459 80.8664 42.9951C80.7787 43.0443 80.6809 43.0827 80.5729 43.1104L80.7385 43.1536L81.4732 44.2339H80.8159L80.1209 43.1536ZM80.1209 42.2155V42.7934H80.1857C80.2674 42.7934 80.3394 42.7808 80.4018 42.7556C80.4654 42.7292 80.5188 42.6944 80.562 42.6512C80.6053 42.6068 80.6377 42.5558 80.6593 42.4981C80.6821 42.4393 80.6935 42.3781 80.6935 42.3145C80.6935 42.2305 80.6779 42.1614 80.6467 42.1074C80.6155 42.0534 80.5753 42.0114 80.526 41.9814C80.478 41.9502 80.424 41.9292 80.364 41.9184C80.3052 41.9063 80.2482 41.9003 80.1929 41.9003C80.1737 41.9003 80.1557 41.9009 80.1389 41.9021C80.1221 41.9021 80.1065 41.9027 80.0921 41.9039L80.1209 42.2155Z" fill="#DF3A34"/>
<path d="M78.6214 43.8234L78.5728 44.2339H76.8442L76.8748 43.818V41.9598L76.8118 41.533H78.5548V41.9436H77.4798L77.5068 42.192V42.5846H78.4359V42.9681H77.5068V43.5857L77.4924 43.8234H78.6214Z" fill="#DF3A34"/>
<path d="M75.4275 44.2339L74.556 42.5234H74.538L74.6497 43.0653V44.2339H74.0681V41.9598L74.0086 41.533L74.5956 41.497L75.4563 43.1536H75.4743L75.3681 42.6998V41.533L75.9479 41.497V44.2339H75.4275Z" fill="#DF3A34"/>
<path d="M73.35 43.836C73.296 43.896 73.2354 43.9524 73.1682 44.0052C73.1009 44.0569 73.0265 44.1019 72.9449 44.1403C72.8633 44.1787 72.7744 44.2093 72.6784 44.2321C72.5836 44.2537 72.4815 44.2645 72.3723 44.2645C72.1862 44.2645 72.0194 44.2273 71.8717 44.1529C71.7241 44.0773 71.5986 43.9752 71.4954 43.8468C71.3922 43.7184 71.3129 43.5683 71.2577 43.3966C71.2037 43.225 71.1767 43.0425 71.1767 42.8493C71.1767 42.728 71.1875 42.611 71.2091 42.4981C71.2307 42.3841 71.2637 42.2773 71.3081 42.1776C71.3525 42.0768 71.4084 41.9856 71.4756 41.9039C71.544 41.8211 71.6238 41.7503 71.7151 41.6915C71.8063 41.6315 71.9095 41.5852 72.0248 41.5528C72.1412 41.5192 72.2702 41.5024 72.4119 41.5024C72.5679 41.5024 72.7162 41.5288 72.8566 41.5816C72.9971 41.6345 73.1201 41.7119 73.2258 41.8139L72.9593 42.1272C72.9197 42.1008 72.8783 42.0756 72.835 42.0516C72.7918 42.0276 72.7474 42.0066 72.7018 41.9886C72.6574 41.9706 72.613 41.9562 72.5686 41.9454C72.5241 41.9346 72.4809 41.9292 72.4389 41.9292C72.3249 41.9292 72.2276 41.9538 72.1472 42.003C72.068 42.051 72.0032 42.117 71.9527 42.201C71.9023 42.2839 71.8657 42.3811 71.8429 42.4927C71.8201 42.6032 71.8087 42.7202 71.8087 42.8439C71.8087 42.9171 71.8135 42.9927 71.8231 43.0707C71.8339 43.1476 71.8495 43.2232 71.8699 43.2976C71.8915 43.3708 71.9185 43.4399 71.9509 43.5047C71.9846 43.5695 72.0236 43.6265 72.068 43.6757C72.1136 43.725 72.1652 43.764 72.2228 43.7928C72.2805 43.8216 72.3453 43.836 72.4173 43.836C72.4473 43.836 72.4779 43.8324 72.5091 43.8252C72.5415 43.818 72.5722 43.809 72.601 43.7982C72.631 43.7862 72.6586 43.773 72.6838 43.7586C72.7102 43.7442 72.733 43.7292 72.7522 43.7136V43.1248L72.2228 43.0905V42.7214H73.35V43.836Z" fill="#DF3A34"/>
<path d="M68.6886 41.533H70.2696V41.9436H69.778V43.8234H70.32L70.257 44.2339H68.676V43.8234H69.1766V41.9436H68.6256L68.6886 41.533Z" fill="#DF3A34"/>
<path d="M67.3728 42.1128C67.3176 42.0804 67.2672 42.0534 67.2215 42.0318C67.1771 42.009 67.1357 41.991 67.0973 41.9778C67.0589 41.9646 67.0223 41.955 66.9875 41.949C66.9538 41.943 66.9202 41.94 66.8866 41.94C66.8422 41.94 66.7978 41.9442 66.7534 41.9526C66.7102 41.961 66.6712 41.9754 66.6363 41.9958C66.6015 42.0162 66.5733 42.0438 66.5517 42.0786C66.5301 42.1134 66.5193 42.1566 66.5193 42.2082C66.5193 42.2575 66.5313 42.3001 66.5553 42.3361C66.5805 42.3709 66.6129 42.4021 66.6525 42.4297C66.6934 42.4573 66.739 42.4825 66.7894 42.5053C66.841 42.5282 66.8932 42.5516 66.946 42.5756C67.0361 42.6176 67.1273 42.6632 67.2197 42.7124C67.3122 42.7604 67.3956 42.8175 67.47 42.8835C67.5444 42.9495 67.6051 43.0269 67.6519 43.1158C67.6999 43.2034 67.7239 43.3072 67.7239 43.4273C67.7239 43.5665 67.6951 43.6883 67.6375 43.7928C67.5799 43.8972 67.503 43.9842 67.407 44.0539C67.3122 44.1235 67.2023 44.1763 67.0775 44.2123C66.9539 44.2471 66.826 44.2645 66.694 44.2645C66.5427 44.2645 66.4029 44.2435 66.2744 44.2015C66.1472 44.1583 66.0193 44.0965 65.8909 44.0161L66.1394 43.6073C66.1718 43.6289 66.2102 43.6517 66.2546 43.6757C66.299 43.6997 66.3458 43.722 66.3951 43.7424C66.4455 43.7616 66.4959 43.7778 66.5463 43.791C66.5967 43.803 66.6447 43.809 66.6904 43.809C66.7432 43.809 66.7954 43.8036 66.847 43.7928C66.8986 43.7808 66.9442 43.7616 66.9839 43.7352C67.0247 43.7076 67.0571 43.6715 67.0811 43.6271C67.1063 43.5827 67.1189 43.5269 67.1189 43.4597C67.1189 43.3948 67.1039 43.339 67.0739 43.2922C67.0451 43.2454 67.0067 43.2046 66.9586 43.1698C66.9118 43.1338 66.8584 43.1013 66.7984 43.0725C66.7384 43.0437 66.6778 43.0149 66.6165 42.9861C66.5301 42.9453 66.4461 42.9021 66.3644 42.8565C66.2828 42.8108 66.2096 42.7592 66.1448 42.7016C66.0812 42.644 66.0295 42.5792 65.9899 42.5071C65.9515 42.4351 65.9323 42.3523 65.9323 42.2587C65.9323 42.1374 65.9581 42.03 66.0097 41.9364C66.0614 41.8415 66.1298 41.7623 66.215 41.6987C66.3002 41.6339 66.3975 41.5852 66.5067 41.5528C66.6159 41.5192 66.7282 41.5024 66.8434 41.5024C66.9851 41.5024 67.1201 41.5246 67.2486 41.569C67.377 41.6122 67.5084 41.6789 67.6429 41.7689L67.3728 42.1128Z" fill="#DF3A34"/>
<path d="M64.9298 43.8234L64.8811 44.2339H63.1526L63.1832 43.818V41.9598L63.1202 41.533H64.8631V41.9436H63.7882L63.8152 42.192V42.5846H64.7443V42.9681H63.8152V43.5857L63.8008 43.8234H64.9298Z" fill="#DF3A34"/>
<path d="M60.263 41.533C60.3218 41.527 60.3842 41.5222 60.4503 41.5186C60.5163 41.515 60.5811 41.512 60.6447 41.5096C60.7095 41.5072 60.7702 41.5054 60.8266 41.5042C60.8842 41.503 60.9328 41.5024 60.9724 41.5024C61.1741 41.5024 61.3602 41.527 61.5306 41.5762C61.7023 41.6243 61.8505 41.6999 61.9754 41.8031C62.1002 41.9063 62.198 42.039 62.2689 42.201C62.3397 42.3619 62.3751 42.5552 62.3751 42.7808C62.3751 42.9549 62.3577 43.1122 62.3229 43.2526C62.2881 43.3918 62.2389 43.5155 62.1752 43.6235C62.1128 43.7304 62.0378 43.8228 61.9502 43.9008C61.8625 43.9776 61.7659 44.0407 61.6603 44.0899C61.5558 44.1391 61.4442 44.1757 61.3253 44.1997C61.2065 44.2225 61.0841 44.2339 60.958 44.2339H60.3242V41.9616L60.263 41.533ZM60.9562 42.2155V43.7838C61.0823 43.7838 61.1891 43.7688 61.2767 43.7388C61.3644 43.7076 61.4376 43.6667 61.4964 43.6163C61.5552 43.5647 61.6008 43.5059 61.6333 43.4399C61.6657 43.3738 61.6903 43.306 61.7071 43.2364C61.7239 43.1656 61.7341 43.0953 61.7377 43.0257C61.7413 42.9561 61.7431 42.8919 61.7431 42.8331C61.7431 42.6986 61.7323 42.5756 61.7107 42.4639C61.6903 42.3523 61.6513 42.2563 61.5936 42.1758C61.536 42.0954 61.4562 42.0336 61.3542 41.9904C61.2521 41.946 61.1201 41.9238 60.958 41.9238C60.9544 41.9238 60.9502 41.9244 60.9454 41.9256C60.9418 41.9256 60.9376 41.9256 60.9328 41.9256H60.9184L60.9562 42.2155Z" fill="#DF3A34"/>
<path d="M144.181 42.545C144.216 42.5198 144.258 42.4891 144.307 42.4531C144.356 42.4171 144.408 42.3775 144.464 42.3343C144.52 42.2911 144.577 42.2461 144.635 42.1992C144.694 42.1512 144.749 42.1026 144.802 42.0534C144.855 42.003 144.904 41.9532 144.948 41.9039C144.994 41.8535 145.031 41.8055 145.06 41.7599L144.591 41.8931H143.995L144.033 41.533H145.549V41.8445C145.512 41.9394 145.459 42.0264 145.389 42.1056C145.321 42.1848 145.243 42.2629 145.157 42.3397L144.876 42.4891C145.002 42.4891 145.117 42.506 145.22 42.5396C145.324 42.572 145.413 42.6188 145.486 42.68C145.56 42.7412 145.616 42.8163 145.656 42.9051C145.696 42.9927 145.717 43.0917 145.717 43.2022C145.717 43.321 145.692 43.4291 145.643 43.5263C145.594 43.6235 145.527 43.7106 145.443 43.7874C145.359 43.863 145.26 43.929 145.146 43.9854C145.033 44.0419 144.912 44.0887 144.782 44.1259C144.654 44.1619 144.521 44.1889 144.383 44.2069C144.246 44.2249 144.111 44.2339 143.977 44.2339V43.8738C144.119 43.869 144.257 43.8504 144.392 43.818C144.526 43.7856 144.646 43.7418 144.752 43.6865C144.857 43.6301 144.942 43.5629 145.006 43.4849C145.07 43.4057 145.103 43.3174 145.103 43.2202C145.103 43.1506 145.088 43.0923 145.058 43.0455C145.029 42.9975 144.989 42.9591 144.939 42.9303C144.889 42.9003 144.83 42.8793 144.763 42.8673C144.697 42.8541 144.626 42.8475 144.552 42.8475C144.534 42.8475 144.507 42.8481 144.473 42.8493C144.438 42.8505 144.402 42.8523 144.365 42.8547C144.327 42.8559 144.291 42.8577 144.257 42.8601C144.223 42.8625 144.198 42.8643 144.181 42.8655V42.545Z" fill="#DF3A34"/>
<path d="M141.135 44.2339V43.8918C141.191 43.803 141.256 43.71 141.329 43.6127C141.404 43.5143 141.48 43.4183 141.558 43.3246C141.636 43.2298 141.712 43.1404 141.787 43.0563C141.861 42.9723 141.926 42.8997 141.983 42.8385C142.048 42.7688 142.103 42.71 142.148 42.662C142.194 42.614 142.231 42.5696 142.258 42.5288C142.286 42.4879 142.306 42.4471 142.318 42.4063C142.331 42.3643 142.338 42.3151 142.338 42.2587C142.338 42.2142 142.33 42.1704 142.314 42.1272C142.3 42.0828 142.279 42.0432 142.251 42.0084C142.223 41.9736 142.19 41.946 142.15 41.9256C142.111 41.9039 142.067 41.8931 142.019 41.8931C141.92 41.8931 141.834 41.9262 141.76 41.9922C141.685 42.0582 141.619 42.1476 141.561 42.2605L141.142 42.1038C141.177 42.0126 141.221 41.9298 141.275 41.8553C141.33 41.7809 141.396 41.7179 141.471 41.6663C141.547 41.6134 141.632 41.5732 141.727 41.5456C141.823 41.5168 141.929 41.5024 142.046 41.5024C142.183 41.5024 142.304 41.5252 142.411 41.5708C142.518 41.6153 142.608 41.6741 142.681 41.7473C142.756 41.8205 142.812 41.9039 142.851 41.9976C142.889 42.09 142.908 42.1836 142.908 42.2785C142.908 42.3625 142.895 42.4399 142.869 42.5107C142.842 42.5816 142.807 42.65 142.762 42.716C142.718 42.7808 142.668 42.8457 142.611 42.9105C142.555 42.9753 142.497 43.0437 142.437 43.1158C142.377 43.1878 142.314 43.261 142.249 43.3354C142.186 43.4099 142.124 43.4807 142.066 43.5479C142.008 43.6151 141.955 43.6769 141.907 43.7334C141.86 43.7898 141.824 43.8366 141.797 43.8738H142.953V44.2339H141.135Z" fill="#DF3A34"/>
<path d="M139.325 44.2627C139.214 44.2627 139.111 44.2435 139.018 44.2051C138.924 44.1655 138.84 44.1121 138.765 44.0449C138.691 43.9776 138.626 43.899 138.569 43.809C138.513 43.719 138.466 43.6229 138.429 43.5209C138.392 43.4189 138.363 43.3132 138.344 43.204C138.326 43.0947 138.317 42.9879 138.317 42.8835C138.317 42.7754 138.325 42.6668 138.341 42.5576C138.356 42.4471 138.381 42.3409 138.414 42.2389C138.449 42.1356 138.493 42.0396 138.546 41.9508C138.6 41.8619 138.664 41.7845 138.738 41.7185C138.813 41.6513 138.899 41.599 138.996 41.5618C139.093 41.5234 139.203 41.5042 139.325 41.5042C139.437 41.5042 139.54 41.524 139.633 41.5636C139.727 41.602 139.811 41.6549 139.885 41.7221C139.96 41.7893 140.025 41.8679 140.082 41.958C140.138 42.048 140.185 42.144 140.222 42.2461C140.259 42.3481 140.287 42.4537 140.305 42.563C140.324 42.6722 140.334 42.779 140.334 42.8835C140.334 42.9915 140.325 43.1007 140.309 43.2112C140.293 43.3204 140.268 43.4267 140.235 43.5299C140.201 43.6319 140.157 43.7274 140.103 43.8162C140.051 43.905 139.986 43.983 139.911 44.0503C139.836 44.1163 139.75 44.1685 139.653 44.2069C139.556 44.2441 139.447 44.2627 139.325 44.2627ZM138.908 42.8097C138.908 42.8709 138.91 42.9387 138.915 43.0131C138.921 43.0875 138.93 43.1626 138.942 43.2382C138.955 43.3126 138.973 43.3852 138.994 43.4561C139.016 43.5269 139.042 43.5899 139.073 43.6451C139.106 43.7003 139.144 43.7448 139.187 43.7784C139.23 43.8108 139.28 43.827 139.338 43.827C139.388 43.827 139.434 43.815 139.473 43.791C139.513 43.7658 139.548 43.7322 139.578 43.6901C139.608 43.6469 139.633 43.5971 139.653 43.5407C139.675 43.4831 139.692 43.4219 139.705 43.357C139.719 43.2922 139.728 43.2262 139.734 43.159C139.74 43.0905 139.743 43.0233 139.743 42.9573C139.743 42.8961 139.74 42.8283 139.734 42.7538C139.729 42.6794 139.72 42.605 139.707 42.5306C139.695 42.4549 139.678 42.3817 139.657 42.3109C139.635 42.2401 139.608 42.1776 139.576 42.1236C139.545 42.0684 139.507 42.0246 139.462 41.9922C139.419 41.9586 139.369 41.9418 139.311 41.9418C139.261 41.9418 139.216 41.9544 139.176 41.9796C139.136 42.0036 139.102 42.0372 139.072 42.0804C139.042 42.1224 139.016 42.1722 138.994 42.2299C138.974 42.2863 138.957 42.3469 138.944 42.4117C138.932 42.4753 138.923 42.5414 138.917 42.6098C138.911 42.6782 138.908 42.7448 138.908 42.8097Z" fill="#DF3A34"/>
<path d="M135.658 44.2339V43.8918C135.714 43.803 135.779 43.71 135.853 43.6127C135.927 43.5143 136.003 43.4183 136.081 43.3246C136.159 43.2298 136.235 43.1404 136.31 43.0563C136.384 42.9723 136.45 42.8997 136.506 42.8385C136.571 42.7688 136.626 42.71 136.672 42.662C136.717 42.614 136.754 42.5696 136.782 42.5288C136.809 42.4879 136.829 42.4471 136.841 42.4063C136.854 42.3643 136.861 42.3151 136.861 42.2587C136.861 42.2142 136.853 42.1704 136.837 42.1272C136.823 42.0828 136.802 42.0432 136.774 42.0084C136.747 41.9736 136.713 41.946 136.674 41.9256C136.634 41.9039 136.59 41.8931 136.542 41.8931C136.444 41.8931 136.357 41.9262 136.283 41.9922C136.208 42.0582 136.142 42.1476 136.085 42.2605L135.665 42.1038C135.7 42.0126 135.744 41.9298 135.798 41.8553C135.854 41.7809 135.919 41.7179 135.995 41.6663C136.07 41.6134 136.156 41.5732 136.25 41.5456C136.346 41.5168 136.453 41.5024 136.569 41.5024C136.706 41.5024 136.828 41.5252 136.935 41.5708C137.042 41.6153 137.132 41.6741 137.205 41.7473C137.279 41.8205 137.336 41.9039 137.374 41.9976C137.412 42.09 137.432 42.1836 137.432 42.2785C137.432 42.3625 137.418 42.4399 137.392 42.5107C137.366 42.5816 137.33 42.65 137.286 42.716C137.241 42.7808 137.191 42.8457 137.135 42.9105C137.078 42.9753 137.02 43.0437 136.96 43.1158C136.9 43.1878 136.837 43.261 136.773 43.3354C136.709 43.4099 136.648 43.4807 136.589 43.5479C136.531 43.6151 136.479 43.6769 136.431 43.7334C136.384 43.7898 136.347 43.8366 136.321 43.8738H137.477V44.2339H135.658Z" fill="#DF3A34"/>
<path d="M130.165 43.9044C130.165 43.8552 130.174 43.809 130.192 43.7658C130.211 43.7226 130.237 43.6847 130.27 43.6523C130.302 43.6199 130.339 43.5947 130.381 43.5767C130.424 43.5575 130.471 43.5479 130.52 43.5479C130.569 43.5479 130.615 43.5575 130.659 43.5767C130.702 43.5947 130.74 43.6199 130.772 43.6523C130.804 43.6847 130.83 43.7226 130.848 43.7658C130.867 43.809 130.876 43.8552 130.876 43.9044C130.876 43.9536 130.867 44.0004 130.848 44.0449C130.83 44.0881 130.804 44.1259 130.772 44.1583C130.741 44.1907 130.704 44.2165 130.66 44.2357C130.617 44.2549 130.572 44.2645 130.524 44.2645C130.474 44.2645 130.427 44.2549 130.383 44.2357C130.34 44.2165 130.302 44.1907 130.27 44.1583C130.237 44.1259 130.211 44.0881 130.192 44.0449C130.174 44.0004 130.165 43.9536 130.165 43.9044Z" fill="#DF3A34"/>
<path d="M127.36 41.533C127.419 41.527 127.481 41.5222 127.548 41.5186C127.614 41.515 127.678 41.512 127.742 41.5096C127.807 41.5072 127.867 41.5054 127.924 41.5042C127.981 41.503 128.03 41.5024 128.07 41.5024C128.271 41.5024 128.457 41.527 128.628 41.5762C128.8 41.6243 128.948 41.6999 129.073 41.8031C129.197 41.9063 129.295 42.039 129.366 42.201C129.437 42.3619 129.472 42.5552 129.472 42.7808C129.472 42.9549 129.455 43.1122 129.42 43.2526C129.385 43.3918 129.336 43.5155 129.272 43.6235C129.21 43.7304 129.135 43.8228 129.047 43.9008C128.96 43.9776 128.863 44.0407 128.758 44.0899C128.653 44.1391 128.541 44.1757 128.423 44.1997C128.304 44.2225 128.181 44.2339 128.055 44.2339H127.421V41.9616L127.36 41.533ZM128.053 42.2155V43.7838C128.18 43.7838 128.286 43.7688 128.374 43.7388C128.462 43.7076 128.535 43.6667 128.594 43.6163C128.652 43.5647 128.698 43.5059 128.73 43.4399C128.763 43.3738 128.788 43.306 128.804 43.2364C128.821 43.1656 128.831 43.0953 128.835 43.0257C128.839 42.9561 128.84 42.8919 128.84 42.8331C128.84 42.6986 128.83 42.5756 128.808 42.4639C128.788 42.3523 128.749 42.2563 128.691 42.1758C128.633 42.0954 128.553 42.0336 128.451 41.9904C128.349 41.946 128.217 41.9238 128.055 41.9238C128.052 41.9238 128.047 41.9244 128.043 41.9256C128.039 41.9256 128.035 41.9256 128.03 41.9256H128.016L128.053 42.2155Z" fill="#DF3A34"/>
<path d="M125.348 44.2339V41.9436H124.622V41.533H126.664V41.9436H125.947V44.2339H125.348Z" fill="#DF3A34"/>
<path d="M123.517 42.1128C123.462 42.0804 123.411 42.0534 123.365 42.0318C123.321 42.009 123.28 41.991 123.241 41.9778C123.203 41.9646 123.166 41.955 123.131 41.949C123.098 41.943 123.064 41.94 123.031 41.94C122.986 41.94 122.942 41.9442 122.897 41.9526C122.854 41.961 122.815 41.9754 122.78 41.9958C122.745 42.0162 122.717 42.0438 122.696 42.0786C122.674 42.1134 122.663 42.1566 122.663 42.2082C122.663 42.2575 122.675 42.3001 122.699 42.3361C122.724 42.3709 122.757 42.4021 122.797 42.4297C122.837 42.4573 122.883 42.4825 122.933 42.5053C122.985 42.5282 123.037 42.5516 123.09 42.5756C123.18 42.6176 123.271 42.6632 123.364 42.7124C123.456 42.7604 123.54 42.8175 123.614 42.8835C123.688 42.9495 123.749 43.0269 123.796 43.1158C123.844 43.2034 123.868 43.3072 123.868 43.4273C123.868 43.5665 123.839 43.6883 123.781 43.7928C123.724 43.8972 123.647 43.9842 123.551 44.0539C123.456 44.1235 123.346 44.1763 123.221 44.2123C123.098 44.2471 122.97 44.2645 122.838 44.2645C122.687 44.2645 122.547 44.2435 122.418 44.2015C122.291 44.1583 122.163 44.0965 122.035 44.0161L122.283 43.6073C122.316 43.6289 122.354 43.6517 122.399 43.6757C122.443 43.6997 122.49 43.722 122.539 43.7424C122.589 43.7616 122.64 43.7778 122.69 43.791C122.741 43.803 122.789 43.809 122.834 43.809C122.887 43.809 122.939 43.8036 122.991 43.7928C123.043 43.7808 123.088 43.7616 123.128 43.7352C123.169 43.7076 123.201 43.6715 123.225 43.6271C123.25 43.5827 123.263 43.5269 123.263 43.4597C123.263 43.3948 123.248 43.339 123.218 43.2922C123.189 43.2454 123.151 43.2046 123.103 43.1698C123.056 43.1338 123.002 43.1013 122.942 43.0725C122.882 43.0437 122.822 43.0149 122.76 42.9861C122.674 42.9453 122.59 42.9021 122.508 42.8565C122.427 42.8108 122.354 42.7592 122.289 42.7016C122.225 42.644 122.173 42.5792 122.134 42.5071C122.095 42.4351 122.076 42.3523 122.076 42.2587C122.076 42.1374 122.102 42.03 122.154 41.9364C122.205 41.8415 122.274 41.7623 122.359 41.6987C122.444 41.6339 122.541 41.5852 122.651 41.5528C122.76 41.5192 122.872 41.5024 122.987 41.5024C123.129 41.5024 123.264 41.5246 123.393 41.569C123.521 41.6122 123.652 41.6789 123.787 41.7689L123.517 42.1128Z" fill="#DF3A34"/>
<path d="M121.074 43.8234L121.025 44.2339H119.297L119.327 43.818V41.9598L119.264 41.533H121.007V41.9436H119.932L119.959 42.192V42.5846H120.888V42.9681H119.959V43.5857L119.945 43.8234H121.074Z" fill="#DF3A34"/>
</svg>
